<?xml version="1.0" encoding="UTF-8" standalone="no"?>
<!-- Created with Inkscape (http://www.inkscape.org/) -->

<svg
   xmlns:dc="http://purl.org/dc/elements/1.1/"
   xmlns:cc="http://creativecommons.org/ns#"
   xmlns:rdf="http://www.w3.org/1999/02/22-rdf-syntax-ns#"
   xmlns:svg="http://www.w3.org/2000/svg"
   xmlns="http://www.w3.org/2000/svg"
   xmlns:sodipodi="http://sodipodi.sourceforge.net/DTD/sodipodi-0.dtd"
   xmlns:inkscape="http://www.inkscape.org/namespaces/inkscape"
   width="2048"
   height="2048"
   viewBox="0 0 2048 2048"
   id="svg2"
   version="1.1"
   inkscape:version="0.91 r"
   sodipodi:docname="drawing.svg"
   inkscape:export-filename="/home/nicholas/devenv/emerald/src/assets/calibration.png"
   inkscape:export-xdpi="90"
   inkscape:export-ydpi="90">
  <defs
     id="defs4">
    <inkscape:perspective
       sodipodi:type="inkscape:persp3d"
       inkscape:vp_x="0 : 1024 : 1"
       inkscape:vp_y="0 : 1000 : 0"
       inkscape:vp_z="2048 : 1024 : 1"
       inkscape:persp3d-origin="1024 : 682.66667 : 1"
       id="perspective13334" />
  </defs>
  <sodipodi:namedview
     id="base"
     pagecolor="#ffffff"
     bordercolor="#666666"
     borderopacity="1.0"
     inkscape:pageopacity="1"
     inkscape:pageshadow="2"
     inkscape:zoom="0.20750545"
     inkscape:cx="919.79353"
     inkscape:cy="955.619"
     inkscape:document-units="px"
     inkscape:current-layer="layer1"
     showgrid="false"
     units="px"
     inkscape:window-width="1321"
     inkscape:window-height="744"
     inkscape:window-x="45"
     inkscape:window-y="24"
     inkscape:window-maximized="1" />
  <metadata
     id="metadata7">
    <rdf:RDF>
      <cc:Work
         rdf:about="">
        <dc:format>image/svg+xml</dc:format>
        <dc:type
           rdf:resource="http://purl.org/dc/dcmitype/StillImage" />
        <dc:title></dc:title>
      </cc:Work>
    </rdf:RDF>
  </metadata>
  <g
     inkscape:label="Layer 1"
     inkscape:groupmode="layer"
     id="layer1"
     transform="translate(0,995.63784)">
    <path
       inkscape:connector-curvature="0"
       style="color:#000000;clip-rule:nonzero;display:inline;overflow:visible;visibility:visible;opacity:1;isolation:auto;mix-blend-mode:normal;color-interpolation:sRGB;color-interpolation-filters:linearRGB;solid-color:#000000;solid-opacity:1;fill:#000000;fill-opacity:1;fill-rule:nonzero;stroke:none;stroke-width:3;stroke-linecap:round;stroke-linejoin:round;stroke-miterlimit:4;stroke-dasharray:none;stroke-dashoffset:0;stroke-opacity:1;color-rendering:auto;image-rendering:auto;shape-rendering:auto;text-rendering:auto;enable-background:accumulate"
       d="m 0,-995.63784 0,128 128,0 0,-128 -128,0 z m 128,128 0,128 128,0 0,-128 -128,0 z m 128,0 128,0 0,-128 -128,0 0,128 z m 128,0 0,128 128,0 0,-128 -128,0 z m 128,0 128,0 0,-128 -128,0 0,128 z m 128,0 0,128 128,0 0,-128 -128,0 z m 128,0 128,0 0,-128 -128,0 0,128 z m 128,0 0,128 128,0 0,-128 -128,0 z m 128,0 128,0 0,-128 -128,0 0,128 z m 128,0 0,128 128,0 0,-128 -128,0 z m 128,0 128,0 0,-128 -128,0 0,128 z m 128,0 0,128 128,0 0,-128 -128,0 z m 128,0 128,0 0,-128 -128,0 0,128 z m 128,0 0,128 128,0 0,-128 -128,0 z m 128,0 128,0 0,-128 -128,0 0,128 z m 128,0 0,128 128,0 0,-128 -128,0 z m 0,128 -128,0 0,128 128,0 0,-128 z m 0,128 0,128 128,0 0,-128 -128,0 z m 0,128 -128,0 0,128 128,0 0,-128 z m 0,128 0,128 128,0 0,-128 -128,0 z m 0,128 -128,0 0,128 128,0 0,-128 z m 0,128 0,128 128,0 0,-128 -128,0 z m 0,128 -128,0 0,128 128,0 0,-128 z m 0,128 0,128 128,0 0,-128 -128,0 z m 0,128 -128,0 0,128 128,0 0,-128 z m 0,128 0,128 128,0 0,-128 -128,0 z m 0,128 -128,0 0,128 128,0 0,-128 z m 0,128 0,128 128,0 0,-128 -128,0 z m 0,128 -128,0 0,128 128,0 0,-128 z m 0,128 0,128.00004 128,0 0,-128.00004 -128,0 z m -128,0 -128,0 0,128.00004 128,0 0,-128.00004 z m -128,0 0,-128 -128,0 0,128 128,0 z m -128,0 -128,0 0,128.00004 128,0 0,-128.00004 z m -128,0 0,-128 -128,0 0,128 128,0 z m -128,0 -128,0 0,128.00004 128,0 0,-128.00004 z m -128,0 0,-128 -128,0 0,128 128,0 z m -128,0 -128,0 0,128.00004 128,0 0,-128.00004 z m -128,0 0,-128 -128,0 0,128 128,0 z m -128,0 -128,0 0,128.00004 128,0 0,-128.00004 z m -128,0 0,-128 -128,0 0,128 128,0 z m -128,0 -128,0 0,128.00004 128,0 0,-128.00004 z m -128,0 0,-128 -128,0 0,128 128,0 z m -128,0 -128,0 0,128.00004 128,0 0,-128.00004 z m -128,0 0,-128 -128,0 0,128 128,0 z m 0,-128 128,0 0,-128 -128,0 0,128 z m 0,-128 0,-128 -128,0 0,128 128,0 z m 0,-128 128,0 0,-128 -128,0 0,128 z m 0,-128 0,-128 -128,0 0,128 128,0 z m 0,-128 128,0 0,-128 -128,0 0,128 z m 0,-128 0,-128 -128,0 0,128 128,0 z m 0,-128 128,0 0,-128 -128,0 0,128 z m 0,-128 0,-128 -128,0 0,128 128,0 z m 0,-128 128,0 0,-128 -128,0 0,128 z m 0,-128 0,-128 -128,0 0,128 128,0 z m 0,-128 128,0 0,-128 -128,0 0,128 z m 0,-128 0,-128 -128,0 0,128 128,0 z m 128,0 128,0 0,-128 -128,0 0,128 z m 128,0 0,128 128,0 0,-128 -128,0 z m 128,0 128,0 0,-128 -128,0 0,128 z m 128,0 0,128 128,0 0,-128 -128,0 z m 128,0 128,0 0,-128 -128,0 0,128 z m 128,0 0,128 128,0 0,-128 -128,0 z m 128,0 128,0 0,-128 -128,0 0,128 z m 128,0 0,128 128,0 0,-128 -128,0 z m 128,0 128,0 0,-128 -128,0 0,128 z m 128,0 0,128 128,0 0,-128 -128,0 z m 128,0 128,0 0,-128 -128,0 0,128 z m 128,0 0,128 128,0 0,-128 -128,0 z m 0,128 -128,0 0,128 128,0 0,-128 z m 0,128 0,128 128,0 0,-128 -128,0 z m 0,128 -128,0 0,128 128,0 0,-128 z m 0,128 0,128 128,0 0,-128 -128,0 z m 0,128 -128,0 0,128 128,0 0,-128 z m 0,128 0,128 128,0 0,-128 -128,0 z m 0,128 -128,0 0,128 128,0 0,-128 z m 0,128 0,128 128,0 0,-128 -128,0 z m 0,128 -128,0 0,128 128,0 0,-128 z m 0,128 0,128 128,0 0,-128 -128,0 z m -128,0 -128,0 0,128 128,0 0,-128 z m -128,0 0,-128 -128,0 0,128 128,0 z m -128,0 -128,0 0,128 128,0 0,-128 z m -128,0 0,-128 -128,0 0,128 128,0 z m -128,0 -128,0 0,128 128,0 0,-128 z m -128,0 0,-128 -128,0 0,128 128,0 z m -128,0 -128,0 0,128 128,0 0,-128 z m -128,0 0,-128 -128,0 0,128 128,0 z m -128,0 -128,0 0,128 128,0 0,-128 z m -128,0 0,-128 -128,0 0,128 128,0 z m 0,-128 128,0 0,-128 -128,0 0,128 z m 0,-128 0,-128 -128,0 0,128 128,0 z m 0,-128 128,0 0,-128 -128,0 0,128 z m 0,-128 0,-128 -128,0 0,128 128,0 z m 0,-128 128,0 0,-128 -128,0 0,128 z m 0,-128 0,-128 -128,0 0,128 128,0 z m 0,-128 128,0 0,-128 -128,0 0,128 z m 0,-128 0,-128 -128,0 0,128 128,0 z m 128,0 128,0 0,-128 -128,0 0,128 z m 128,0 0,128 128,0 0,-128 -128,0 z m 128,0 128,0 0,-128 -128,0 0,128 z m 128,0 0,128 128,0 0,-128 -128,0 z m 128,0 128,0 0,-128 -128,0 0,128 z m 128,0 0,128 128,0 0,-128 -128,0 z m 128,0 128,0 0,-128 -128,0 0,128 z m 128,0 0,128 128,0 0,-128 -128,0 z m 0,128 -128,0 0,128 128,0 0,-128 z m 0,128 0,128 128,0 0,-128 -128,0 z m 0,128 -128,0 0,128 128,0 0,-128 z m 0,128 0,128 128,0 0,-128 -128,0 z m 0,128 -128,0 0,128 128,0 0,-128 z m 0,128 0,128 128,0 0,-128 -128,0 z m -128,0 -128,0 0,128 128,0 0,-128 z m -128,0 0,-128 -128,0 0,128 128,0 z m -128,0 -128,0 0,128 128,0 0,-128 z m -128,0 0,-128 -128,0 0,128 128,0 z m -128,0 -128,0 0,128 128,0 0,-128 z m -128,0 0,-128 -128,0 0,128 128,0 z m 0,-128 128,0 0,-128 -128,0 0,128 z m 0,-128 0,-128 -128,0 0,128 128,0 z m 0,-128 128,0 0,-128 -128,0 0,128 z m 0,-128 0,-128 -128,0 0,128 128,0 z m 128,0 128,0 0,-128 -128,0 0,128 z m 128,0 0,128 128,0 0,-128 -128,0 z m 128,0 128,0 0,-128 -128,0 0,128 z m 128,0 0,128 128,0 0,-128 -128,0 z m 0,128 -128,0 0,128 128,0 0,-128 z m 0,128 0,128 128,0 0,-128 -128,0 z m -128,0 -128,0 0,128 128,0 0,-128 z m -128,0 0,-128 -128,0 0,128 128,0 z"
       id="rect8068-3-0-2-2-5-2-1-5-4-1-0-4-1-4-3-6" />
    <g
       id="g18287"
       transform="matrix(1,0,0,-1,4e-5,56.72432)">
      <path
         id="rect8068-3-0-2-2-5-2-1-5-4-1-0-4-1-4-3-6-5-1-6"
         d="m 512,-483.63788 32,0 0,-32 -32,0 0,32 z m 32,-32 32,0 0,-32 -32,0 0,32 z m 0,-32 0,-32 -32,0 0,32 32,0 z m 0,-32 32,0 0,-32 -32,0 0,32 z m 0,-32 0,-32.00001 -32,0 0,32.00001 32,0 z m 0,-32.00001 32,0 0,-32 -32,0 0,32 z m 0,-32 0,-32 -32,0 0,32 32,0 z m 0,-32 32,0 0,-32 -32,0 0,32 z m 0,-32 0,-32 -32,0 0,32 32,0 z m 0,-32 32,0 0,-32.00001 -32,0 0,32.00001 z m 0,-32.00001 0,-32 -32,0 0,32 32,0 z m 0,-32 32,0 0,-32 -32,0 0,32 z m 0,-32 0,-32 -32,0 0,32 32,0 z m 0,-32 32,0 0,-32 -32,0 0,32 z m 0,-32 0,-32.00002 -32,0 0,32.00002 32,0 z m 0,-32.00002 32,0 0,-31.99996 -32,0 0,31.99996 z m 32,0 0,32.00002 32,0 0,-32.00002 -32,0 z m 32,0 32,0 0,-31.99996 -32,0 0,31.99996 z m 32,0 0,32.00002 32,0 0,-32.00002 -32,0 z m 32,0 32,0 0,-31.99996 -32,0 0,31.99996 z m 32,0 0,32.00002 32,0 0,-32.00002 -32,0 z m 32,0 32,0 0,-31.99996 -32,0 0,31.99996 z m 32,0 0,32.00002 32,0 0,-32.00002 -32,0 z m 32,0 32,0 0,-31.99996 -32,0 0,31.99996 z m 32,0 0,32.00002 32,0 0,-32.00002 -32,0 z m 32,0 32,0 0,-31.99996 -32,0 0,31.99996 z m 32,0 0,32.00002 31.99999,0 0,-32.00002 -31.99999,0 z m 31.99999,0 32,0 0,-31.99996 -32,0 0,31.99996 z m 32,0 0,32.00002 32,0 0,-32.00002 -32,0 z m 32,0 32.00001,0 0,-31.99996 -32.00001,0 0,31.99996 z m 0,32.00002 0,32 32.00001,0 0,-32 -32.00001,0 z m 0,32 -32,0 0,32 32,0 0,-32 z m 0,32 0,32 32.00001,0 0,-32 -32.00001,0 z m 0,32 -32,0 0,32 32,0 0,-32 z m 0,32 0,32.00001 32.00001,0 0,-32.00001 -32.00001,0 z m 0,32.00001 -32,0 0,32 32,0 0,-32 z m 0,32 0,32 32.00001,0 0,-32 -32.00001,0 z m 0,32 -32,0 0,32 32,0 0,-32 z m 0,32 0,32 32.00001,0 0,-32 -32.00001,0 z m 0,32 -32,0 0,32.00001 32,0 0,-32.00001 z m 0,32.00001 0,32 32.00001,0 0,-32 -32.00001,0 z m 0,32 -32,0 0,32 32,0 0,-32 z m 0,32 0,32 32.00001,0 0,-32 -32.00001,0 z m 0,32 -32,0 0,32 32,0 0,-32 z m -32,0 0,-32 -32,0 0,32 32,0 z m -32,0 -31.99999,0 0,32 31.99999,0 0,-32 z m -31.99999,0 0,-32 -32,0 0,32 32,0 z m -32,0 -32,0 0,32 32,0 0,-32 z m -32,0 0,-32 -32,0 0,32 32,0 z m -32,0 -32,0 0,32 32,0 0,-32 z m -32,0 0,-32 -32,0 0,32 32,0 z m -32,0 -32,0 0,32 32,0 0,-32 z m -32,0 0,-32 -32,0 0,32 32,0 z m -32,0 -32,0 0,32 32,0 0,-32 z m -32,0 0,-32 -32,0 0,32 32,0 z m -32,0 -32,0 0,32 32,0 0,-32 z m 0,-32 0,-32 -32,0 0,32 32,0 z m 0,-32 32,0 0,-32 -32,0 0,32 z m 0,-32 0,-32.00001 -32,0 0,32.00001 32,0 z m 0,-32.00001 32,0 0,-32 -32,0 0,32 z m 0,-32 0,-32 -32,0 0,32 32,0 z m 0,-32 32,0 0,-32 -32,0 0,32 z m 0,-32 0,-32 -32,0 0,32 32,0 z m 0,-32 32,0 0,-32.00001 -32,0 0,32.00001 z m 0,-32.00001 0,-32 -32,0 0,32 32,0 z m 0,-32 32,0 0,-32 -32,0 0,32 z m 0,-32 0,-32 -32,0 0,32 32,0 z m 0,-32 32,0 0,-32 -32,0 0,32 z m 32,0 0,32 32,0 0,-32 -32,0 z m 32,0 32,0 0,-32 -32,0 0,32 z m 32,0 0,32 32,0 0,-32 -32,0 z m 32,0 32,0 0,-32 -32,0 0,32 z m 32,0 0,32 32,0 0,-32 -32,0 z m 32,0 32,0 0,-32 -32,0 0,32 z m 32,0 0,32 32,0 0,-32 -32,0 z m 32,0 32,0 0,-32 -32,0 0,32 z m 32,0 0,32 31.99999,0 0,-32 -31.99999,0 z m 31.99999,0 32,0 0,-32 -32,0 0,32 z m 0,32 0,32 32,0 0,-32 -32,0 z m 0,32 -31.99999,0 0,32 31.99999,0 0,-32 z m 0,32 0,32.00001 32,0 0,-32.00001 -32,0 z m 0,32.00001 -31.99999,0 0,32 31.99999,0 0,-32 z m 0,32 0,32 32,0 0,-32 -32,0 z m 0,32 -31.99999,0 0,32 31.99999,0 0,-32 z m 0,32 0,32 32,0 0,-32 -32,0 z m 0,32 -31.99999,0 0,32.00001 31.99999,0 0,-32.00001 z m 0,32.00001 0,32 32,0 0,-32 -32,0 z m 0,32 -31.99999,0 0,32 31.99999,0 0,-32 z m -31.99999,0 0,-32 -32,0 0,32 32,0 z m -32,0 -32,0 0,32 32,0 0,-32 z m -32,0 0,-32 -32,0 0,32 32,0 z m -32,0 -32,0 0,32 32,0 0,-32 z m -32,0 0,-32 -32,0 0,32 32,0 z m -32,0 -32,0 0,32 32,0 0,-32 z m -32,0 0,-32 -32,0 0,32 32,0 z m -32,0 -32,0 0,32 32,0 0,-32 z m 0,-32 0,-32.00001 -32,0 0,32.00001 32,0 z m 0,-32.00001 32,0 0,-32 -32,0 0,32 z m 0,-32 0,-32 -32,0 0,32 32,0 z m 0,-32 32,0 0,-32 -32,0 0,32 z m 0,-32 0,-32 -32,0 0,32 32,0 z m 0,-32 32,0 0,-32.00001 -32,0 0,32.00001 z m 0,-32.00001 0,-32 -32,0 0,32 32,0 z m 0,-32 32,0 0,-32 -32,0 0,32 z m 32,0 0,32 32,0 0,-32 -32,0 z m 32,0 32,0 0,-32 -32,0 0,32 z m 32,0 0,32 32,0 0,-32 -32,0 z m 32,0 32,0 0,-32 -32,0 0,32 z m 32,0 0,32 32,0 0,-32 -32,0 z m 32,0 32,0 0,-32 -32,0 0,32 z m 0,32 0,32.00001 32,0 0,-32.00001 -32,0 z m 0,32.00001 -32,0 0,32 32,0 0,-32 z m 0,32 0,32 32,0 0,-32 -32,0 z m 0,32 -32,0 0,32 32,0 0,-32 z m 0,32 0,32 32,0 0,-32 -32,0 z m 0,32 -32,0 0,32.00001 32,0 0,-32.00001 z m -32,0 0,-32 -32,0 0,32 32,0 z m -32,0 -32,0 0,32.00001 32,0 0,-32.00001 z m -32,0 0,-32 -32,0 0,32 32,0 z m -32,0 -32,0 0,32.00001 32,0 0,-32.00001 z m 0,-32 0,-32 -32,0 0,32 32,0 z m 0,-32 32,0 0,-32 -32,0 0,32 z m 0,-32 0,-32 -32,0 0,32 32,0 z m 0,-32 32,0 0,-32.00001 -32,0 0,32.00001 z m 32,0 0,32 32,0 0,-32 -32,0 z m 32,0 32,0 0,-32.00001 -32,0 0,32.00001 z m 0,32 0,32 32,0 0,-32 -32,0 z m 0,32 -32,0 0,32 32,0 0,-32 z"
         style="color:#000000;clip-rule:nonzero;display:inline;overflow:visible;visibility:visible;opacity:1;isolation:auto;mix-blend-mode:normal;color-interpolation:sRGB;color-interpolation-filters:linearRGB;solid-color:#000000;solid-opacity:1;fill:#ffffff;fill-opacity:1;fill-rule:nonzero;stroke:none;stroke-width:3;stroke-linecap:round;stroke-linejoin:round;stroke-miterlimit:4;stroke-dasharray:none;stroke-dashoffset:0;stroke-opacity:1;color-rendering:auto;image-rendering:auto;shape-rendering:auto;text-rendering:auto;enable-background:accumulate"
         inkscape:connector-curvature="0" />
      <path
         id="rect8068-3-0-2-2-5-2-1-5-4-1-0-4-1-4-3-6-5-0-2-4"
         d="m 1536,-483.63788 32,0 0,-32 -32,0 0,32 z m 32,-32 32,0 0,-32 -32,0 0,32 z m 0,-32 0,-32 -32,0 0,32 32,0 z m 0,-32 32,0 0,-32 -32,0 0,32 z m 0,-32 0,-32.00001 -32,0 0,32.00001 32,0 z m 0,-32.00001 32,0 0,-32 -32,0 0,32 z m 0,-32 0,-32 -32,0 0,32 32,0 z m 0,-32 32,0 0,-32 -32,0 0,32 z m 0,-32 0,-32 -32,0 0,32 32,0 z m 0,-32 32,0 0,-32.00001 -32,0 0,32.00001 z m 0,-32.00001 0,-32 -32,0 0,32 32,0 z m 0,-32 32,0 0,-32 -32,0 0,32 z m 0,-32 0,-32 -32,0 0,32 32,0 z m 0,-32 32,0 0,-32 -32,0 0,32 z m 0,-32 0,-32.00002 -32,0 0,32.00002 32,0 z m 0,-32.00002 32,0 0,-31.99996 -32,0 0,31.99996 z m 32,0 0,32.00002 32,0 0,-32.00002 -32,0 z m 32,0 32,0 0,-31.99996 -32,0 0,31.99996 z m 32,0 0,32.00002 32,0 0,-32.00002 -32,0 z m 32,0 32,0 0,-31.99996 -32,0 0,31.99996 z m 32,0 0,32.00002 32,0 0,-32.00002 -32,0 z m 32,0 32,0 0,-31.99996 -32,0 0,31.99996 z m 32,0 0,32.00002 32,0 0,-32.00002 -32,0 z m 32,0 32,0 0,-31.99996 -32,0 0,31.99996 z m 32,0 0,32.00002 32,0 0,-32.00002 -32,0 z m 32,0 32,0 0,-31.99996 -32,0 0,31.99996 z m 32,0 0,32.00002 32,0 0,-32.00002 -32,0 z m 32,0 32,0 0,-31.99996 -32,0 0,31.99996 z m 32,0 0,32.00002 32,0 0,-32.00002 -32,0 z m 32,0 32,0 0,-31.99996 -32,0 0,31.99996 z m 0,32.00002 0,32 32,0 0,-32 -32,0 z m 0,32 -32,0 0,32 32,0 0,-32 z m 0,32 0,32 32,0 0,-32 -32,0 z m 0,32 -32,0 0,32 32,0 0,-32 z m 0,32 0,32.00001 32,0 0,-32.00001 -32,0 z m 0,32.00001 -32,0 0,32 32,0 0,-32 z m 0,32 0,32 32,0 0,-32 -32,0 z m 0,32 -32,0 0,32 32,0 0,-32 z m 0,32 0,32 32,0 0,-32 -32,0 z m 0,32 -32,0 0,32.00001 32,0 0,-32.00001 z m 0,32.00001 0,32 32,0 0,-32 -32,0 z m 0,32 -32,0 0,32 32,0 0,-32 z m 0,32 0,32 32,0 0,-32 -32,0 z m 0,32 -32,0 0,32 32,0 0,-32 z m -32,0 0,-32 -32,0 0,32 32,0 z m -32,0 -32,0 0,32 32,0 0,-32 z m -32,0 0,-32 -32,0 0,32 32,0 z m -32,0 -32,0 0,32 32,0 0,-32 z m -32,0 0,-32 -32,0 0,32 32,0 z m -32,0 -32,0 0,32 32,0 0,-32 z m -32,0 0,-32 -32,0 0,32 32,0 z m -32,0 -32,0 0,32 32,0 0,-32 z m -32,0 0,-32 -32,0 0,32 32,0 z m -32,0 -32,0 0,32 32,0 0,-32 z m -32,0 0,-32 -32,0 0,32 32,0 z m -32,0 -32,0 0,32 32,0 0,-32 z m 0,-32 0,-32 -32,0 0,32 32,0 z m 0,-32 32,0 0,-32 -32,0 0,32 z m 0,-32 0,-32.00001 -32,0 0,32.00001 32,0 z m 0,-32.00001 32,0 0,-32 -32,0 0,32 z m 0,-32 0,-32 -32,0 0,32 32,0 z m 0,-32 32,0 0,-32 -32,0 0,32 z m 0,-32 0,-32 -32,0 0,32 32,0 z m 0,-32 32,0 0,-32.00001 -32,0 0,32.00001 z m 0,-32.00001 0,-32 -32,0 0,32 32,0 z m 0,-32 32,0 0,-32 -32,0 0,32 z m 0,-32 0,-32 -32,0 0,32 32,0 z m 0,-32 32,0 0,-32 -32,0 0,32 z m 32,0 0,32 32,0 0,-32 -32,0 z m 32,0 32,0 0,-32 -32,0 0,32 z m 32,0 0,32 32,0 0,-32 -32,0 z m 32,0 32,0 0,-32 -32,0 0,32 z m 32,0 0,32 32,0 0,-32 -32,0 z m 32,0 32,0 0,-32 -32,0 0,32 z m 32,0 0,32 32,0 0,-32 -32,0 z m 32,0 32,0 0,-32 -32,0 0,32 z m 32,0 0,32 32,0 0,-32 -32,0 z m 32,0 32,0 0,-32 -32,0 0,32 z m 0,32 0,32 32,0 0,-32 -32,0 z m 0,32 -32,0 0,32 32,0 0,-32 z m 0,32 0,32.00001 32,0 0,-32.00001 -32,0 z m 0,32.00001 -32,0 0,32 32,0 0,-32 z m 0,32 0,32 32,0 0,-32 -32,0 z m 0,32 -32,0 0,32 32,0 0,-32 z m 0,32 0,32 32,0 0,-32 -32,0 z m 0,32 -32,0 0,32.00001 32,0 0,-32.00001 z m 0,32.00001 0,32 32,0 0,-32 -32,0 z m 0,32 -32,0 0,32 32,0 0,-32 z m -32,0 0,-32 -32,0 0,32 32,0 z m -32,0 -32,0 0,32 32,0 0,-32 z m -32,0 0,-32 -32,0 0,32 32,0 z m -32,0 -32,0 0,32 32,0 0,-32 z m -32,0 0,-32 -32,0 0,32 32,0 z m -32,0 -32,0 0,32 32,0 0,-32 z m -32,0 0,-32 -32,0 0,32 32,0 z m -32,0 -32,0 0,32 32,0 0,-32 z m 0,-32 0,-32.00001 -32,0 0,32.00001 32,0 z m 0,-32.00001 32,0 0,-32 -32,0 0,32 z m 0,-32 0,-32 -32,0 0,32 32,0 z m 0,-32 32,0 0,-32 -32,0 0,32 z m 0,-32 0,-32 -32,0 0,32 32,0 z m 0,-32 32,0 0,-32.00001 -32,0 0,32.00001 z m 0,-32.00001 0,-32 -32,0 0,32 32,0 z m 0,-32 32,0 0,-32 -32,0 0,32 z m 32,0 0,32 32,0 0,-32 -32,0 z m 32,0 32,0 0,-32 -32,0 0,32 z m 32,0 0,32 32,0 0,-32 -32,0 z m 32,0 32,0 0,-32 -32,0 0,32 z m 32,0 0,32 32,0 0,-32 -32,0 z m 32,0 32,0 0,-32 -32,0 0,32 z m 0,32 0,32.00001 32,0 0,-32.00001 -32,0 z m 0,32.00001 -32,0 0,32 32,0 0,-32 z m 0,32 0,32 32,0 0,-32 -32,0 z m 0,32 -32,0 0,32 32,0 0,-32 z m 0,32 0,32 32,0 0,-32 -32,0 z m 0,32 -32,0 0,32.00001 32,0 0,-32.00001 z m -32,0 0,-32 -32,0 0,32 32,0 z m -32,0 -32,0 0,32.00001 32,0 0,-32.00001 z m -32,0 0,-32 -32,0 0,32 32,0 z m -32,0 -32,0 0,32.00001 32,0 0,-32.00001 z m 0,-32 0,-32 -32,0 0,32 32,0 z m 0,-32 32,0 0,-32 -32,0 0,32 z m 0,-32 0,-32 -32,0 0,32 32,0 z m 0,-32 32,0 0,-32.00001 -32,0 0,32.00001 z m 32,0 0,32 32,0 0,-32 -32,0 z m 32,0 32,0 0,-32.00001 -32,0 0,32.00001 z m 0,32 0,32 32,0 0,-32 -32,0 z m 0,32 -32,0 0,32 32,0 0,-32 z"
         style="color:#000000;clip-rule:nonzero;display:inline;overflow:visible;visibility:visible;opacity:1;isolation:auto;mix-blend-mode:normal;color-interpolation:sRGB;color-interpolation-filters:linearRGB;solid-color:#000000;solid-opacity:1;fill:#ffffff;fill-opacity:1;fill-rule:nonzero;stroke:none;stroke-width:3;stroke-linecap:round;stroke-linejoin:round;stroke-miterlimit:4;stroke-dasharray:none;stroke-dashoffset:0;stroke-opacity:1;color-rendering:auto;image-rendering:auto;shape-rendering:auto;text-rendering:auto;enable-background:accumulate"
         inkscape:connector-curvature="0" />
      <path
         id="rect8068-3-0-2-2-5-2-1-5-4-1-0-4-1-4-3-6-5-8"
         d="m 512,540.36216 32,0 0,-32 -32,0 0,32 z m 32,-32 32,0 0,-32.00004 -32,0 0,32.00004 z m 0,-32.00004 0,-32 -32,0 0,32 32,0 z m 0,-32 32,0 0,-32 -32,0 0,32 z m 0,-32 0,-32 -32,0 0,32 32,0 z m 0,-32 32,0 0,-32 -32,0 0,32 z m 0,-32 0,-32 -32,0 0,32 32,0 z m 0,-32 32,0 0,-32 -32,0 0,32 z m 0,-32 0,-32 -32,0 0,32 32,0 z m 0,-32 32,0 0,-32 -32,0 0,32 z m 0,-32 0,-32 -32,0 0,32 32,0 z m 0,-32 32,0 0,-32 -32,0 0,32 z m 0,-32 0,-32 -32,0 0,32 32,0 z m 0,-32 32,0 0,-32 -32,0 0,32 z m 0,-32 0,-32 -32,0 0,32 32,0 z m 0,-32 32,0 0,-32 -32,0 0,32 z m 32,0 0,32 32,0 0,-32 -32,0 z m 32,0 32,0 0,-32 -32,0 0,32 z m 32,0 0,32 32,0 0,-32 -32,0 z m 32,0 32,0 0,-32 -32,0 0,32 z m 32,0 0,32 32,0 0,-32 -32,0 z m 32,0 32,0 0,-32 -32,0 0,32 z m 32,0 0,32 32,0 0,-32 -32,0 z m 32,0 32,0 0,-32 -32,0 0,32 z m 32,0 0,32 32,0 0,-32 -32,0 z m 32,0 32,0 0,-32 -32,0 0,32 z m 32,0 0,32 31.99999,0 0,-32 -31.99999,0 z m 31.99999,0 32,0 0,-32 -32,0 0,32 z m 32,0 0,32 32,0 0,-32 -32,0 z m 32,0 32.00001,0 0,-32 -32.00001,0 0,32 z m 0,32 0,32 32.00001,0 0,-32 -32.00001,0 z m 0,32 -32,0 0,32 32,0 0,-32 z m 0,32 0,32 32.00001,0 0,-32 -32.00001,0 z m 0,32 -32,0 0,32 32,0 0,-32 z m 0,32 0,32 32.00001,0 0,-32 -32.00001,0 z m 0,32 -32,0 0,32 32,0 0,-32 z m 0,32 0,32 32.00001,0 0,-32 -32.00001,0 z m 0,32 -32,0 0,32 32,0 0,-32 z m 0,32 0,32 32.00001,0 0,-32 -32.00001,0 z m 0,32 -32,0 0,32 32,0 0,-32 z m 0,32 0,32 32.00001,0 0,-32 -32.00001,0 z m 0,32 -32,0 0,32 32,0 0,-32 z m 0,32 0,32.00004 32.00001,0 0,-32.00004 -32.00001,0 z m 0,32.00004 -32,0 0,32 32,0 0,-32 z m -32,0 0,-32.00004 -32,0 0,32.00004 32,0 z m -32,0 -31.99999,0 0,32 31.99999,0 0,-32 z m -31.99999,0 0,-32.00004 -32,0 0,32.00004 32,0 z m -32,0 -32,0 0,32 32,0 0,-32 z m -32,0 0,-32.00004 -32,0 0,32.00004 32,0 z m -32,0 -32,0 0,32 32,0 0,-32 z m -32,0 0,-32.00004 -32,0 0,32.00004 32,0 z m -32,0 -32,0 0,32 32,0 0,-32 z m -32,0 0,-32.00004 -32,0 0,32.00004 32,0 z m -32,0 -32,0 0,32 32,0 0,-32 z m -32,0 0,-32.00004 -32,0 0,32.00004 32,0 z m -32,0 -32,0 0,32 32,0 0,-32 z m 0,-32.00004 0,-32 -32,0 0,32 32,0 z m 0,-32 32,0 0,-32 -32,0 0,32 z m 0,-32 0,-32 -32,0 0,32 32,0 z m 0,-32 32,0 0,-32 -32,0 0,32 z m 0,-32 0,-32 -32,0 0,32 32,0 z m 0,-32 32,0 0,-32 -32,0 0,32 z m 0,-32 0,-32 -32,0 0,32 32,0 z m 0,-32 32,0 0,-32 -32,0 0,32 z m 0,-32 0,-32 -32,0 0,32 32,0 z m 0,-32 32,0 0,-32 -32,0 0,32 z m 0,-32 0,-32 -32,0 0,32 32,0 z m 0,-32 32,0 0,-32 -32,0 0,32 z m 32,0 0,32 32,0 0,-32 -32,0 z m 32,0 32,0 0,-32 -32,0 0,32 z m 32,0 0,32 32,0 0,-32 -32,0 z m 32,0 32,0 0,-32 -32,0 0,32 z m 32,0 0,32 32,0 0,-32 -32,0 z m 32,0 32,0 0,-32 -32,0 0,32 z m 32,0 0,32 32,0 0,-32 -32,0 z m 32,0 32,0 0,-32 -32,0 0,32 z m 32,0 0,32 31.99999,0 0,-32 -31.99999,0 z m 31.99999,0 32,0 0,-32 -32,0 0,32 z m 0,32 0,32 32,0 0,-32 -32,0 z m 0,32 -31.99999,0 0,32 31.99999,0 0,-32 z m 0,32 0,32 32,0 0,-32 -32,0 z m 0,32 -31.99999,0 0,32 31.99999,0 0,-32 z m 0,32 0,32 32,0 0,-32 -32,0 z m 0,32 -31.99999,0 0,32 31.99999,0 0,-32 z m 0,32 0,32 32,0 0,-32 -32,0 z m 0,32 -31.99999,0 0,32 31.99999,0 0,-32 z m 0,32 0,32 32,0 0,-32 -32,0 z m 0,32 -31.99999,0 0,32 31.99999,0 0,-32 z m -31.99999,0 0,-32 -32,0 0,32 32,0 z m -32,0 -32,0 0,32 32,0 0,-32 z m -32,0 0,-32 -32,0 0,32 32,0 z m -32,0 -32,0 0,32 32,0 0,-32 z m -32,0 0,-32 -32,0 0,32 32,0 z m -32,0 -32,0 0,32 32,0 0,-32 z m -32,0 0,-32 -32,0 0,32 32,0 z m -32,0 -32,0 0,32 32,0 0,-32 z m 0,-32 0,-32 -32,0 0,32 32,0 z m 0,-32 32,0 0,-32 -32,0 0,32 z m 0,-32 0,-32 -32,0 0,32 32,0 z m 0,-32 32,0 0,-32 -32,0 0,32 z m 0,-32 0,-32 -32,0 0,32 32,0 z m 0,-32 32,0 0,-32 -32,0 0,32 z m 0,-32 0,-32 -32,0 0,32 32,0 z m 0,-32 32,0 0,-32 -32,0 0,32 z m 32,0 0,32 32,0 0,-32 -32,0 z m 32,0 32,0 0,-32 -32,0 0,32 z m 32,0 0,32 32,0 0,-32 -32,0 z m 32,0 32,0 0,-32 -32,0 0,32 z m 32,0 0,32 32,0 0,-32 -32,0 z m 32,0 32,0 0,-32 -32,0 0,32 z m 0,32 0,32 32,0 0,-32 -32,0 z m 0,32 -32,0 0,32 32,0 0,-32 z m 0,32 0,32 32,0 0,-32 -32,0 z m 0,32 -32,0 0,32 32,0 0,-32 z m 0,32 0,32 32,0 0,-32 -32,0 z m 0,32 -32,0 0,32 32,0 0,-32 z m -32,0 0,-32 -32,0 0,32 32,0 z m -32,0 -32,0 0,32 32,0 0,-32 z m -32,0 0,-32 -32,0 0,32 32,0 z m -32,0 -32,0 0,32 32,0 0,-32 z m 0,-32 0,-32 -32,0 0,32 32,0 z m 0,-32 32,0 0,-32 -32,0 0,32 z m 0,-32 0,-32 -32,0 0,32 32,0 z m 0,-32 32,0 0,-32 -32,0 0,32 z m 32,0 0,32 32,0 0,-32 -32,0 z m 32,0 32,0 0,-32 -32,0 0,32 z m 0,32 0,32 32,0 0,-32 -32,0 z m 0,32 -32,0 0,32 32,0 0,-32 z"
         style="color:#000000;clip-rule:nonzero;display:inline;overflow:visible;visibility:visible;opacity:1;isolation:auto;mix-blend-mode:normal;color-interpolation:sRGB;color-interpolation-filters:linearRGB;solid-color:#000000;solid-opacity:1;fill:#ffffff;fill-opacity:1;fill-rule:nonzero;stroke:none;stroke-width:3;stroke-linecap:round;stroke-linejoin:round;stroke-miterlimit:4;stroke-dasharray:none;stroke-dashoffset:0;stroke-opacity:1;color-rendering:auto;image-rendering:auto;shape-rendering:auto;text-rendering:auto;enable-background:accumulate"
         inkscape:connector-curvature="0" />
      <path
         id="rect8068-3-0-2-2-5-2-1-5-4-1-0-4-1-4-3-6-5-0-5"
         d="m 1536,540.36216 32,0 0,-32 -32,0 0,32 z m 32,-32 32,0 0,-32.00004 -32,0 0,32.00004 z m 0,-32.00004 0,-32 -32,0 0,32 32,0 z m 0,-32 32,0 0,-32 -32,0 0,32 z m 0,-32 0,-32 -32,0 0,32 32,0 z m 0,-32 32,0 0,-32 -32,0 0,32 z m 0,-32 0,-32 -32,0 0,32 32,0 z m 0,-32 32,0 0,-32 -32,0 0,32 z m 0,-32 0,-32 -32,0 0,32 32,0 z m 0,-32 32,0 0,-32 -32,0 0,32 z m 0,-32 0,-32 -32,0 0,32 32,0 z m 0,-32 32,0 0,-32 -32,0 0,32 z m 0,-32 0,-32 -32,0 0,32 32,0 z m 0,-32 32,0 0,-32 -32,0 0,32 z m 0,-32 0,-32 -32,0 0,32 32,0 z m 0,-32 32,0 0,-32 -32,0 0,32 z m 32,0 0,32 32,0 0,-32 -32,0 z m 32,0 32,0 0,-32 -32,0 0,32 z m 32,0 0,32 32,0 0,-32 -32,0 z m 32,0 32,0 0,-32 -32,0 0,32 z m 32,0 0,32 32,0 0,-32 -32,0 z m 32,0 32,0 0,-32 -32,0 0,32 z m 32,0 0,32 32,0 0,-32 -32,0 z m 32,0 32,0 0,-32 -32,0 0,32 z m 32,0 0,32 32,0 0,-32 -32,0 z m 32,0 32,0 0,-32 -32,0 0,32 z m 32,0 0,32 32,0 0,-32 -32,0 z m 32,0 32,0 0,-32 -32,0 0,32 z m 32,0 0,32 32,0 0,-32 -32,0 z m 32,0 32,0 0,-32 -32,0 0,32 z m 0,32 0,32 32,0 0,-32 -32,0 z m 0,32 -32,0 0,32 32,0 0,-32 z m 0,32 0,32 32,0 0,-32 -32,0 z m 0,32 -32,0 0,32 32,0 0,-32 z m 0,32 0,32 32,0 0,-32 -32,0 z m 0,32 -32,0 0,32 32,0 0,-32 z m 0,32 0,32 32,0 0,-32 -32,0 z m 0,32 -32,0 0,32 32,0 0,-32 z m 0,32 0,32 32,0 0,-32 -32,0 z m 0,32 -32,0 0,32 32,0 0,-32 z m 0,32 0,32 32,0 0,-32 -32,0 z m 0,32 -32,0 0,32 32,0 0,-32 z m 0,32 0,32.00004 32,0 0,-32.00004 -32,0 z m 0,32.00004 -32,0 0,32 32,0 0,-32 z m -32,0 0,-32.00004 -32,0 0,32.00004 32,0 z m -32,0 -32,0 0,32 32,0 0,-32 z m -32,0 0,-32.00004 -32,0 0,32.00004 32,0 z m -32,0 -32,0 0,32 32,0 0,-32 z m -32,0 0,-32.00004 -32,0 0,32.00004 32,0 z m -32,0 -32,0 0,32 32,0 0,-32 z m -32,0 0,-32.00004 -32,0 0,32.00004 32,0 z m -32,0 -32,0 0,32 32,0 0,-32 z m -32,0 0,-32.00004 -32,0 0,32.00004 32,0 z m -32,0 -32,0 0,32 32,0 0,-32 z m -32,0 0,-32.00004 -32,0 0,32.00004 32,0 z m -32,0 -32,0 0,32 32,0 0,-32 z m 0,-32.00004 0,-32 -32,0 0,32 32,0 z m 0,-32 32,0 0,-32 -32,0 0,32 z m 0,-32 0,-32 -32,0 0,32 32,0 z m 0,-32 32,0 0,-32 -32,0 0,32 z m 0,-32 0,-32 -32,0 0,32 32,0 z m 0,-32 32,0 0,-32 -32,0 0,32 z m 0,-32 0,-32 -32,0 0,32 32,0 z m 0,-32 32,0 0,-32 -32,0 0,32 z m 0,-32 0,-32 -32,0 0,32 32,0 z m 0,-32 32,0 0,-32 -32,0 0,32 z m 0,-32 0,-32 -32,0 0,32 32,0 z m 0,-32 32,0 0,-32 -32,0 0,32 z m 32,0 0,32 32,0 0,-32 -32,0 z m 32,0 32,0 0,-32 -32,0 0,32 z m 32,0 0,32 32,0 0,-32 -32,0 z m 32,0 32,0 0,-32 -32,0 0,32 z m 32,0 0,32 32,0 0,-32 -32,0 z m 32,0 32,0 0,-32 -32,0 0,32 z m 32,0 0,32 32,0 0,-32 -32,0 z m 32,0 32,0 0,-32 -32,0 0,32 z m 32,0 0,32 32,0 0,-32 -32,0 z m 32,0 32,0 0,-32 -32,0 0,32 z m 0,32 0,32 32,0 0,-32 -32,0 z m 0,32 -32,0 0,32 32,0 0,-32 z m 0,32 0,32 32,0 0,-32 -32,0 z m 0,32 -32,0 0,32 32,0 0,-32 z m 0,32 0,32 32,0 0,-32 -32,0 z m 0,32 -32,0 0,32 32,0 0,-32 z m 0,32 0,32 32,0 0,-32 -32,0 z m 0,32 -32,0 0,32 32,0 0,-32 z m 0,32 0,32 32,0 0,-32 -32,0 z m 0,32 -32,0 0,32 32,0 0,-32 z m -32,0 0,-32 -32,0 0,32 32,0 z m -32,0 -32,0 0,32 32,0 0,-32 z m -32,0 0,-32 -32,0 0,32 32,0 z m -32,0 -32,0 0,32 32,0 0,-32 z m -32,0 0,-32 -32,0 0,32 32,0 z m -32,0 -32,0 0,32 32,0 0,-32 z m -32,0 0,-32 -32,0 0,32 32,0 z m -32,0 -32,0 0,32 32,0 0,-32 z m 0,-32 0,-32 -32,0 0,32 32,0 z m 0,-32 32,0 0,-32 -32,0 0,32 z m 0,-32 0,-32 -32,0 0,32 32,0 z m 0,-32 32,0 0,-32 -32,0 0,32 z m 0,-32 0,-32 -32,0 0,32 32,0 z m 0,-32 32,0 0,-32 -32,0 0,32 z m 0,-32 0,-32 -32,0 0,32 32,0 z m 0,-32 32,0 0,-32 -32,0 0,32 z m 32,0 0,32 32,0 0,-32 -32,0 z m 32,0 32,0 0,-32 -32,0 0,32 z m 32,0 0,32 32,0 0,-32 -32,0 z m 32,0 32,0 0,-32 -32,0 0,32 z m 32,0 0,32 32,0 0,-32 -32,0 z m 32,0 32,0 0,-32 -32,0 0,32 z m 0,32 0,32 32,0 0,-32 -32,0 z m 0,32 -32,0 0,32 32,0 0,-32 z m 0,32 0,32 32,0 0,-32 -32,0 z m 0,32 -32,0 0,32 32,0 0,-32 z m 0,32 0,32 32,0 0,-32 -32,0 z m 0,32 -32,0 0,32 32,0 0,-32 z m -32,0 0,-32 -32,0 0,32 32,0 z m -32,0 -32,0 0,32 32,0 0,-32 z m -32,0 0,-32 -32,0 0,32 32,0 z m -32,0 -32,0 0,32 32,0 0,-32 z m 0,-32 0,-32 -32,0 0,32 32,0 z m 0,-32 32,0 0,-32 -32,0 0,32 z m 0,-32 0,-32 -32,0 0,32 32,0 z m 0,-32 32,0 0,-32 -32,0 0,32 z m 32,0 0,32 32,0 0,-32 -32,0 z m 32,0 32,0 0,-32 -32,0 0,32 z m 0,32 0,32 32,0 0,-32 -32,0 z m 0,32 -32,0 0,32 32,0 0,-32 z"
         style="color:#000000;clip-rule:nonzero;display:inline;overflow:visible;visibility:visible;opacity:1;isolation:auto;mix-blend-mode:normal;color-interpolation:sRGB;color-interpolation-filters:linearRGB;solid-color:#000000;solid-opacity:1;fill:#ffffff;fill-opacity:1;fill-rule:nonzero;stroke:none;stroke-width:3;stroke-linecap:round;stroke-linejoin:round;stroke-miterlimit:4;stroke-dasharray:none;stroke-dashoffset:0;stroke-opacity:1;color-rendering:auto;image-rendering:auto;shape-rendering:auto;text-rendering:auto;enable-background:accumulate"
         inkscape:connector-curvature="0" />
      <path
         id="rect8068-3-0-2-2-5-2-1-5-4-1-0-4-1-4-3-6-5-1"
         d="m 0,28.36216 32,0 0,-32 -32,0 0,32 z m 32,-32 32,0 0,-32 -32,0 0,32 z m 0,-32 0,-32 -32,0 0,32 32,0 z m 0,-32 32,0 0,-32 -32,0 0,32 z m 0,-32 0,-32.00001 -32,0 0,32.00001 32,0 z m 0,-32.00001 32,0 0,-32 -32,0 0,32 z m 0,-32 0,-32 -32,0 0,32 32,0 z m 0,-32 32,0 0,-32 -32,0 0,32 z m 0,-32 0,-32 -32,0 0,32 32,0 z m 0,-32 32,0 0,-32.00001 -32,0 0,32.00001 z m 0,-32.00001 0,-32 -32,0 0,32 32,0 z m 0,-32 32,0 0,-32 -32,0 0,32 z m 0,-32 0,-32 -32,0 0,32 32,0 z m 0,-32 32,0 0,-32 -32,0 0,32 z m 0,-32 0,-32.00002 -32,0 0,32.00002 32,0 z m 0,-32.00002 32,0 0,-31.99996 -32,0 0,31.99996 z m 32,0 0,32.00002 31.999995,0 0,-32.00002 -31.999995,0 z m 31.999995,0 32.000005,0 0,-31.99996 -32.000005,0 0,31.99996 z m 32.000005,0 0,32.00002 32,0 0,-32.00002 -32,0 z m 32,0 32,0 0,-31.99996 -32,0 0,31.99996 z m 32,0 0,32.00002 32,0 0,-32.00002 -32,0 z m 32,0 32,0 0,-31.99996 -32,0 0,31.99996 z m 32,0 0,32.00002 32,0 0,-32.00002 -32,0 z m 32,0 32,0 0,-31.99996 -32,0 0,31.99996 z m 32,0 0,32.00002 32,0 0,-32.00002 -32,0 z m 32,0 32,0 0,-31.99996 -32,0 0,31.99996 z m 32,0 0,32.00002 31.99999,0 0,-32.00002 -31.99999,0 z m 31.99999,0 32,0 0,-31.99996 -32,0 0,31.99996 z m 32,0 0,32.00002 32,0 0,-32.00002 -32,0 z m 32,0 32.00001,0 0,-31.99996 -32.00001,0 0,31.99996 z m 0,32.00002 0,32 32.00001,0 0,-32 -32.00001,0 z m 0,32 -32,0 0,32 32,0 0,-32 z m 0,32 0,32 32.00001,0 0,-32 -32.00001,0 z m 0,32 -32,0 0,32 32,0 0,-32 z m 0,32 0,32.00001 32.00001,0 0,-32.00001 -32.00001,0 z m 0,32.00001 -32,0 0,32 32,0 0,-32 z m 0,32 0,32 32.00001,0 0,-32 -32.00001,0 z m 0,32 -32,0 0,32 32,0 0,-32 z m 0,32 0,32 32.00001,0 0,-32 -32.00001,0 z m 0,32 -32,0 0,32.00001 32,0 0,-32.00001 z m 0,32.00001 0,32 32.00001,0 0,-32 -32.00001,0 z m 0,32 -32,0 0,32 32,0 0,-32 z m 0,32 0,32 32.00001,0 0,-32 -32.00001,0 z m 0,32 -32,0 0,32 32,0 0,-32 z m -32,0 0,-32 -32,0 0,32 32,0 z m -32,0 -31.99999,0 0,32 31.99999,0 0,-32 z m -31.99999,0 0,-32 -32,0 0,32 32,0 z m -32,0 -32,0 0,32 32,0 0,-32 z m -32,0 0,-32 -32,0 0,32 32,0 z m -32,0 -32,0 0,32 32,0 0,-32 z m -32,0 0,-32 -32,0 0,32 32,0 z m -32,0 -32,0 0,32 32,0 0,-32 z m -32,0 0,-32 -32,0 0,32 32,0 z m -32,0 -32,0 0,32 32,0 0,-32 z m -32,0 0,-32 -32.000005,0 0,32 32.000005,0 z m -32.000005,0 -31.999995,0 0,32 31.999995,0 0,-32 z m 0,-32 0,-32 -31.999995,0 0,32 31.999995,0 z m 0,-32 32.000005,0 0,-32 -32.000005,0 0,32 z m 0,-32 0,-32.00001 -31.999995,0 0,32.00001 31.999995,0 z m 0,-32.00001 32.000005,0 0,-32 -32.000005,0 0,32 z m 0,-32 0,-32 -31.999995,0 0,32 31.999995,0 z m 0,-32 32.000005,0 0,-32 -32.000005,0 0,32 z m 0,-32 0,-32 -31.999995,0 0,32 31.999995,0 z m 0,-32 32.000005,0 0,-32.00001 -32.000005,0 0,32.00001 z m 0,-32.00001 0,-32 -31.999995,0 0,32 31.999995,0 z m 0,-32 32.000005,0 0,-32 -32.000005,0 0,32 z m 0,-32 0,-32 -31.999995,0 0,32 31.999995,0 z m 0,-32 32.000005,0 0,-32 -32.000005,0 0,32 z m 32.000005,0 0,32 32,0 0,-32 -32,0 z m 32,0 32,0 0,-32 -32,0 0,32 z m 32,0 0,32 32,0 0,-32 -32,0 z m 32,0 32,0 0,-32 -32,0 0,32 z m 32,0 0,32 32,0 0,-32 -32,0 z m 32,0 32,0 0,-32 -32,0 0,32 z m 32,0 0,32 32,0 0,-32 -32,0 z m 32,0 32,0 0,-32 -32,0 0,32 z m 32,0 0,32 31.99999,0 0,-32 -31.99999,0 z m 31.99999,0 32,0 0,-32 -32,0 0,32 z m 0,32 0,32 32,0 0,-32 -32,0 z m 0,32 -31.99999,0 0,32 31.99999,0 0,-32 z m 0,32 0,32.00001 32,0 0,-32.00001 -32,0 z m 0,32.00001 -31.99999,0 0,32 31.99999,0 0,-32 z m 0,32 0,32 32,0 0,-32 -32,0 z m 0,32 -31.99999,0 0,32 31.99999,0 0,-32 z m 0,32 0,32 32,0 0,-32 -32,0 z m 0,32 -31.99999,0 0,32.00001 31.99999,0 0,-32.00001 z m 0,32.00001 0,32 32,0 0,-32 -32,0 z m 0,32 -31.99999,0 0,32 31.99999,0 0,-32 z m -31.99999,0 0,-32 -32,0 0,32 32,0 z m -32,0 -32,0 0,32 32,0 0,-32 z m -32,0 0,-32 -32,0 0,32 32,0 z m -32,0 -32,0 0,32 32,0 0,-32 z m -32,0 0,-32 -32,0 0,32 32,0 z m -32,0 -32,0 0,32 32,0 0,-32 z m -32,0 0,-32 -32,0 0,32 32,0 z m -32,0 -32,0 0,32 32,0 0,-32 z m 0,-32 0,-32.00001 -32,0 0,32.00001 32,0 z m 0,-32.00001 32,0 0,-32 -32,0 0,32 z m 0,-32 0,-32 -32,0 0,32 32,0 z m 0,-32 32,0 0,-32 -32,0 0,32 z m 0,-32 0,-32 -32,0 0,32 32,0 z m 0,-32 32,0 0,-32.00001 -32,0 0,32.00001 z m 0,-32.00001 0,-32 -32,0 0,32 32,0 z m 0,-32 32,0 0,-32 -32,0 0,32 z m 32,0 0,32 32,0 0,-32 -32,0 z m 32,0 32,0 0,-32 -32,0 0,32 z m 32,0 0,32 32,0 0,-32 -32,0 z m 32,0 32,0 0,-32 -32,0 0,32 z m 32,0 0,32 32,0 0,-32 -32,0 z m 32,0 32,0 0,-32 -32,0 0,32 z m 0,32 0,32.00001 32,0 0,-32.00001 -32,0 z m 0,32.00001 -32,0 0,32 32,0 0,-32 z m 0,32 0,32 32,0 0,-32 -32,0 z m 0,32 -32,0 0,32 32,0 0,-32 z m 0,32 0,32 32,0 0,-32 -32,0 z m 0,32 -32,0 0,32.00001 32,0 0,-32.00001 z m -32,0 0,-32 -32,0 0,32 32,0 z m -32,0 -32,0 0,32.00001 32,0 0,-32.00001 z m -32,0 0,-32 -32,0 0,32 32,0 z m -32,0 -32,0 0,32.00001 32,0 0,-32.00001 z m 0,-32 0,-32 -32,0 0,32 32,0 z m 0,-32 32,0 0,-32 -32,0 0,32 z m 0,-32 0,-32 -32,0 0,32 32,0 z m 0,-32 32,0 0,-32.00001 -32,0 0,32.00001 z m 32,0 0,32 32,0 0,-32 -32,0 z m 32,0 32,0 0,-32.00001 -32,0 0,32.00001 z m 0,32 0,32 32,0 0,-32 -32,0 z m 0,32 -32,0 0,32 32,0 0,-32 z"
         style="color:#000000;clip-rule:nonzero;display:inline;overflow:visible;visibility:visible;opacity:1;isolation:auto;mix-blend-mode:normal;color-interpolation:sRGB;color-interpolation-filters:linearRGB;solid-color:#000000;solid-opacity:1;fill:#ffffff;fill-opacity:1;fill-rule:nonzero;stroke:none;stroke-width:3;stroke-linecap:round;stroke-linejoin:round;stroke-miterlimit:4;stroke-dasharray:none;stroke-dashoffset:0;stroke-opacity:1;color-rendering:auto;image-rendering:auto;shape-rendering:auto;text-rendering:auto;enable-background:accumulate"
         inkscape:connector-curvature="0" />
      <path
         id="rect8068-3-0-2-2-5-2-1-5-4-1-0-4-1-4-3-6-5-0-2"
         d="m 1024,28.36216 32,0 0,-32 -32,0 0,32 z m 32,-32 32,0 0,-32 -32,0 0,32 z m 0,-32 0,-32 -32,0 0,32 32,0 z m 0,-32 32,0 0,-32 -32,0 0,32 z m 0,-32 0,-32.00001 -32,0 0,32.00001 32,0 z m 0,-32.00001 32,0 0,-32 -32,0 0,32 z m 0,-32 0,-32 -32,0 0,32 32,0 z m 0,-32 32,0 0,-32 -32,0 0,32 z m 0,-32 0,-32 -32,0 0,32 32,0 z m 0,-32 32,0 0,-32.00001 -32,0 0,32.00001 z m 0,-32.00001 0,-32 -32,0 0,32 32,0 z m 0,-32 32,0 0,-32 -32,0 0,32 z m 0,-32 0,-32 -32,0 0,32 32,0 z m 0,-32 32,0 0,-32 -32,0 0,32 z m 0,-32 0,-32.00002 -32,0 0,32.00002 32,0 z m 0,-32.00002 32,0 0,-31.99996 -32,0 0,31.99996 z m 32,0 0,32.00002 32,0 0,-32.00002 -32,0 z m 32,0 32,0 0,-31.99996 -32,0 0,31.99996 z m 32,0 0,32.00002 32,0 0,-32.00002 -32,0 z m 32,0 32,0 0,-31.99996 -32,0 0,31.99996 z m 32,0 0,32.00002 32,0 0,-32.00002 -32,0 z m 32,0 32,0 0,-31.99996 -32,0 0,31.99996 z m 32,0 0,32.00002 32,0 0,-32.00002 -32,0 z m 32,0 32,0 0,-31.99996 -32,0 0,31.99996 z m 32,0 0,32.00002 32,0 0,-32.00002 -32,0 z m 32,0 32,0 0,-31.99996 -32,0 0,31.99996 z m 32,0 0,32.00002 32,0 0,-32.00002 -32,0 z m 32,0 32,0 0,-31.99996 -32,0 0,31.99996 z m 32,0 0,32.00002 32,0 0,-32.00002 -32,0 z m 32,0 32,0 0,-31.99996 -32,0 0,31.99996 z m 0,32.00002 0,32 32,0 0,-32 -32,0 z m 0,32 -32,0 0,32 32,0 0,-32 z m 0,32 0,32 32,0 0,-32 -32,0 z m 0,32 -32,0 0,32 32,0 0,-32 z m 0,32 0,32.00001 32,0 0,-32.00001 -32,0 z m 0,32.00001 -32,0 0,32 32,0 0,-32 z m 0,32 0,32 32,0 0,-32 -32,0 z m 0,32 -32,0 0,32 32,0 0,-32 z m 0,32 0,32 32,0 0,-32 -32,0 z m 0,32 -32,0 0,32.00001 32,0 0,-32.00001 z m 0,32.00001 0,32 32,0 0,-32 -32,0 z m 0,32 -32,0 0,32 32,0 0,-32 z m 0,32 0,32 32,0 0,-32 -32,0 z m 0,32 -32,0 0,32 32,0 0,-32 z m -32,0 0,-32 -32,0 0,32 32,0 z m -32,0 -32,0 0,32 32,0 0,-32 z m -32,0 0,-32 -32,0 0,32 32,0 z m -32,0 -32,0 0,32 32,0 0,-32 z m -32,0 0,-32 -32,0 0,32 32,0 z m -32,0 -32,0 0,32 32,0 0,-32 z m -32,0 0,-32 -32,0 0,32 32,0 z m -32,0 -32,0 0,32 32,0 0,-32 z m -32,0 0,-32 -32,0 0,32 32,0 z m -32,0 -32,0 0,32 32,0 0,-32 z m -32,0 0,-32 -32,0 0,32 32,0 z m -32,0 -32,0 0,32 32,0 0,-32 z m 0,-32 0,-32 -32,0 0,32 32,0 z m 0,-32 32,0 0,-32 -32,0 0,32 z m 0,-32 0,-32.00001 -32,0 0,32.00001 32,0 z m 0,-32.00001 32,0 0,-32 -32,0 0,32 z m 0,-32 0,-32 -32,0 0,32 32,0 z m 0,-32 32,0 0,-32 -32,0 0,32 z m 0,-32 0,-32 -32,0 0,32 32,0 z m 0,-32 32,0 0,-32.00001 -32,0 0,32.00001 z m 0,-32.00001 0,-32 -32,0 0,32 32,0 z m 0,-32 32,0 0,-32 -32,0 0,32 z m 0,-32 0,-32 -32,0 0,32 32,0 z m 0,-32 32,0 0,-32 -32,0 0,32 z m 32,0 0,32 32,0 0,-32 -32,0 z m 32,0 32,0 0,-32 -32,0 0,32 z m 32,0 0,32 32,0 0,-32 -32,0 z m 32,0 32,0 0,-32 -32,0 0,32 z m 32,0 0,32 32,0 0,-32 -32,0 z m 32,0 32,0 0,-32 -32,0 0,32 z m 32,0 0,32 32,0 0,-32 -32,0 z m 32,0 32,0 0,-32 -32,0 0,32 z m 32,0 0,32 32,0 0,-32 -32,0 z m 32,0 32,0 0,-32 -32,0 0,32 z m 0,32 0,32 32,0 0,-32 -32,0 z m 0,32 -32,0 0,32 32,0 0,-32 z m 0,32 0,32.00001 32,0 0,-32.00001 -32,0 z m 0,32.00001 -32,0 0,32 32,0 0,-32 z m 0,32 0,32 32,0 0,-32 -32,0 z m 0,32 -32,0 0,32 32,0 0,-32 z m 0,32 0,32 32,0 0,-32 -32,0 z m 0,32 -32,0 0,32.00001 32,0 0,-32.00001 z m 0,32.00001 0,32 32,0 0,-32 -32,0 z m 0,32 -32,0 0,32 32,0 0,-32 z m -32,0 0,-32 -32,0 0,32 32,0 z m -32,0 -32,0 0,32 32,0 0,-32 z m -32,0 0,-32 -32,0 0,32 32,0 z m -32,0 -32,0 0,32 32,0 0,-32 z m -32,0 0,-32 -32,0 0,32 32,0 z m -32,0 -32,0 0,32 32,0 0,-32 z m -32,0 0,-32 -32,0 0,32 32,0 z m -32,0 -32,0 0,32 32,0 0,-32 z m 0,-32 0,-32.00001 -32,0 0,32.00001 32,0 z m 0,-32.00001 32,0 0,-32 -32,0 0,32 z m 0,-32 0,-32 -32,0 0,32 32,0 z m 0,-32 32,0 0,-32 -32,0 0,32 z m 0,-32 0,-32 -32,0 0,32 32,0 z m 0,-32 32,0 0,-32.00001 -32,0 0,32.00001 z m 0,-32.00001 0,-32 -32,0 0,32 32,0 z m 0,-32 32,0 0,-32 -32,0 0,32 z m 32,0 0,32 32,0 0,-32 -32,0 z m 32,0 32,0 0,-32 -32,0 0,32 z m 32,0 0,32 32,0 0,-32 -32,0 z m 32,0 32,0 0,-32 -32,0 0,32 z m 32,0 0,32 32,0 0,-32 -32,0 z m 32,0 32,0 0,-32 -32,0 0,32 z m 0,32 0,32.00001 32,0 0,-32.00001 -32,0 z m 0,32.00001 -32,0 0,32 32,0 0,-32 z m 0,32 0,32 32,0 0,-32 -32,0 z m 0,32 -32,0 0,32 32,0 0,-32 z m 0,32 0,32 32,0 0,-32 -32,0 z m 0,32 -32,0 0,32.00001 32,0 0,-32.00001 z m -32,0 0,-32 -32,0 0,32 32,0 z m -32,0 -32,0 0,32.00001 32,0 0,-32.00001 z m -32,0 0,-32 -32,0 0,32 32,0 z m -32,0 -32,0 0,32.00001 32,0 0,-32.00001 z m 0,-32 0,-32 -32,0 0,32 32,0 z m 0,-32 32,0 0,-32 -32,0 0,32 z m 0,-32 0,-32 -32,0 0,32 32,0 z m 0,-32 32,0 0,-32.00001 -32,0 0,32.00001 z m 32,0 0,32 32,0 0,-32 -32,0 z m 32,0 32,0 0,-32.00001 -32,0 0,32.00001 z m 0,32 0,32 32,0 0,-32 -32,0 z m 0,32 -32,0 0,32 32,0 0,-32 z"
         style="color:#000000;clip-rule:nonzero;display:inline;overflow:visible;visibility:visible;opacity:1;isolation:auto;mix-blend-mode:normal;color-interpolation:sRGB;color-interpolation-filters:linearRGB;solid-color:#000000;solid-opacity:1;fill:#ffffff;fill-opacity:1;fill-rule:nonzero;stroke:none;stroke-width:3;stroke-linecap:round;stroke-linejoin:round;stroke-miterlimit:4;stroke-dasharray:none;stroke-dashoffset:0;stroke-opacity:1;color-rendering:auto;image-rendering:auto;shape-rendering:auto;text-rendering:auto;enable-background:accumulate"
         inkscape:connector-curvature="0" />
      <path
         id="rect8068-3-0-2-2-5-2-1-5-4-1-0-4-1-4-3-6-5"
         d="m 0,1052.3622 32,0 0,-32 -32,0 0,32 z m 32,-32 32,0 0,-32 -32,0 0,32 z m 0,-32 0,-32 -32,0 0,32 32,0 z m 0,-32 32,0 0,-32 -32,0 0,32 z m 0,-32 0,-32.00001 -32,0 0,32.00001 32,0 z m 0,-32.00001 32,0 0,-32 -32,0 0,32 z m 0,-32 0,-32 -32,0 0,32 32,0 z m 0,-32 32,0 0,-32 -32,0 0,32 z m 0,-32 0,-32 -32,0 0,32 32,0 z m 0,-32 32,0 0,-32.00001 -32,0 0,32.00001 z m 0,-32.00001 0,-32 -32,0 0,32 32,0 z m 0,-32 32,0 0,-32 -32,0 0,32 z m 0,-32 0,-32 -32,0 0,32 32,0 z m 0,-32 32,0 0,-32 -32,0 0,32 z m 0,-32 0,-32.00002 -32,0 0,32.00002 32,0 z m 0,-32.00002 32,0 0,-31.99996 -32,0 0,31.99996 z m 32,0 0,32.00002 31.999995,0 0,-32.00002 -31.999995,0 z m 31.999995,0 32.000005,0 0,-31.99996 -32.000005,0 0,31.99996 z m 32.000005,0 0,32.00002 32,0 0,-32.00002 -32,0 z m 32,0 32,0 0,-31.99996 -32,0 0,31.99996 z m 32,0 0,32.00002 32,0 0,-32.00002 -32,0 z m 32,0 32,0 0,-31.99996 -32,0 0,31.99996 z m 32,0 0,32.00002 32,0 0,-32.00002 -32,0 z m 32,0 32,0 0,-31.99996 -32,0 0,31.99996 z m 32,0 0,32.00002 32,0 0,-32.00002 -32,0 z m 32,0 32,0 0,-31.99996 -32,0 0,31.99996 z m 32,0 0,32.00002 31.99999,0 0,-32.00002 -31.99999,0 z m 31.99999,0 32,0 0,-31.99996 -32,0 0,31.99996 z m 32,0 0,32.00002 32,0 0,-32.00002 -32,0 z m 32,0 32.00001,0 0,-31.99996 -32.00001,0 0,31.99996 z m 0,32.00002 0,32 32.00001,0 0,-32 -32.00001,0 z m 0,32 -32,0 0,32 32,0 0,-32 z m 0,32 0,32 32.00001,0 0,-32 -32.00001,0 z m 0,32 -32,0 0,32 32,0 0,-32 z m 0,32 0,32.00001 32.00001,0 0,-32.00001 -32.00001,0 z m 0,32.00001 -32,0 0,32 32,0 0,-32 z m 0,32 0,32 32.00001,0 0,-32 -32.00001,0 z m 0,32 -32,0 0,32 32,0 0,-32 z m 0,32 0,32 32.00001,0 0,-32 -32.00001,0 z m 0,32 -32,0 0,32.00001 32,0 0,-32.00001 z m 0,32.00001 0,32 32.00001,0 0,-32 -32.00001,0 z m 0,32 -32,0 0,32 32,0 0,-32 z m 0,32 0,32 32.00001,0 0,-32 -32.00001,0 z m 0,32 -32,0 0,32 32,0 0,-32 z m -32,0 0,-32 -32,0 0,32 32,0 z m -32,0 -31.99999,0 0,32 31.99999,0 0,-32 z m -31.99999,0 0,-32 -32,0 0,32 32,0 z m -32,0 -32,0 0,32 32,0 0,-32 z m -32,0 0,-32 -32,0 0,32 32,0 z m -32,0 -32,0 0,32 32,0 0,-32 z m -32,0 0,-32 -32,0 0,32 32,0 z m -32,0 -32,0 0,32 32,0 0,-32 z m -32,0 0,-32 -32,0 0,32 32,0 z m -32,0 -32,0 0,32 32,0 0,-32 z m -32,0 0,-32 -32.000005,0 0,32 32.000005,0 z m -32.000005,0 -31.999995,0 0,32 31.999995,0 0,-32 z m 0,-32 0,-32 -31.999995,0 0,32 31.999995,0 z m 0,-32 32.000005,0 0,-32 -32.000005,0 0,32 z m 0,-32 0,-32.00001 -31.999995,0 0,32.00001 31.999995,0 z m 0,-32.00001 32.000005,0 0,-32 -32.000005,0 0,32 z m 0,-32 0,-32 -31.999995,0 0,32 31.999995,0 z m 0,-32 32.000005,0 0,-32 -32.000005,0 0,32 z m 0,-32 0,-32 -31.999995,0 0,32 31.999995,0 z m 0,-32 32.000005,0 0,-32.00001 -32.000005,0 0,32.00001 z m 0,-32.00001 0,-32 -31.999995,0 0,32 31.999995,0 z m 0,-32 32.000005,0 0,-32 -32.000005,0 0,32 z m 0,-32 0,-32 -31.999995,0 0,32 31.999995,0 z m 0,-32 32.000005,0 0,-32 -32.000005,0 0,32 z m 32.000005,0 0,32 32,0 0,-32 -32,0 z m 32,0 32,0 0,-32 -32,0 0,32 z m 32,0 0,32 32,0 0,-32 -32,0 z m 32,0 32,0 0,-32 -32,0 0,32 z m 32,0 0,32 32,0 0,-32 -32,0 z m 32,0 32,0 0,-32 -32,0 0,32 z m 32,0 0,32 32,0 0,-32 -32,0 z m 32,0 32,0 0,-32 -32,0 0,32 z m 32,0 0,32 31.99999,0 0,-32 -31.99999,0 z m 31.99999,0 32,0 0,-32 -32,0 0,32 z m 0,32 0,32 32,0 0,-32 -32,0 z m 0,32 -31.99999,0 0,32 31.99999,0 0,-32 z m 0,32 0,32.00001 32,0 0,-32.00001 -32,0 z m 0,32.00001 -31.99999,0 0,32 31.99999,0 0,-32 z m 0,32 0,32 32,0 0,-32 -32,0 z m 0,32 -31.99999,0 0,32 31.99999,0 0,-32 z m 0,32 0,32 32,0 0,-32 -32,0 z m 0,32 -31.99999,0 0,32.00001 31.99999,0 0,-32.00001 z m 0,32.00001 0,32 32,0 0,-32 -32,0 z m 0,32 -31.99999,0 0,32 31.99999,0 0,-32 z m -31.99999,0 0,-32 -32,0 0,32 32,0 z m -32,0 -32,0 0,32 32,0 0,-32 z m -32,0 0,-32 -32,0 0,32 32,0 z m -32,0 -32,0 0,32 32,0 0,-32 z m -32,0 0,-32 -32,0 0,32 32,0 z m -32,0 -32,0 0,32 32,0 0,-32 z m -32,0 0,-32 -32,0 0,32 32,0 z m -32,0 -32,0 0,32 32,0 0,-32 z m 0,-32 0,-32.00001 -32,0 0,32.00001 32,0 z m 0,-32.00001 32,0 0,-32 -32,0 0,32 z m 0,-32 0,-32 -32,0 0,32 32,0 z m 0,-32 32,0 0,-32 -32,0 0,32 z m 0,-32 0,-32 -32,0 0,32 32,0 z m 0,-32 32,0 0,-32.00001 -32,0 0,32.00001 z m 0,-32.00001 0,-32 -32,0 0,32 32,0 z m 0,-32 32,0 0,-32 -32,0 0,32 z m 32,0 0,32 32,0 0,-32 -32,0 z m 32,0 32,0 0,-32 -32,0 0,32 z m 32,0 0,32 32,0 0,-32 -32,0 z m 32,0 32,0 0,-32 -32,0 0,32 z m 32,0 0,32 32,0 0,-32 -32,0 z m 32,0 32,0 0,-32 -32,0 0,32 z m 0,32 0,32.00001 32,0 0,-32.00001 -32,0 z m 0,32.00001 -32,0 0,32 32,0 0,-32 z m 0,32 0,32 32,0 0,-32 -32,0 z m 0,32 -32,0 0,32 32,0 0,-32 z m 0,32 0,32 32,0 0,-32 -32,0 z m 0,32 -32,0 0,32.00001 32,0 0,-32.00001 z m -32,0 0,-32 -32,0 0,32 32,0 z m -32,0 -32,0 0,32.00001 32,0 0,-32.00001 z m -32,0 0,-32 -32,0 0,32 32,0 z m -32,0 -32,0 0,32.00001 32,0 0,-32.00001 z m 0,-32 0,-32 -32,0 0,32 32,0 z m 0,-32 32,0 0,-32 -32,0 0,32 z m 0,-32 0,-32 -32,0 0,32 32,0 z m 0,-32 32,0 0,-32.00001 -32,0 0,32.00001 z m 32,0 0,32 32,0 0,-32 -32,0 z m 32,0 32,0 0,-32.00001 -32,0 0,32.00001 z m 0,32 0,32 32,0 0,-32 -32,0 z m 0,32 -32,0 0,32 32,0 0,-32 z"
         style="color:#000000;clip-rule:nonzero;display:inline;overflow:visible;visibility:visible;opacity:1;isolation:auto;mix-blend-mode:normal;color-interpolation:sRGB;color-interpolation-filters:linearRGB;solid-color:#000000;solid-opacity:1;fill:#ffffff;fill-opacity:1;fill-rule:nonzero;stroke:none;stroke-width:3;stroke-linecap:round;stroke-linejoin:round;stroke-miterlimit:4;stroke-dasharray:none;stroke-dashoffset:0;stroke-opacity:1;color-rendering:auto;image-rendering:auto;shape-rendering:auto;text-rendering:auto;enable-background:accumulate"
         inkscape:connector-curvature="0" />
      <path
         id="rect8068-3-0-2-2-5-2-1-5-4-1-0-4-1-4-3-6-5-0"
         d="m 1024,1052.3622 32,0 0,-32 -32,0 0,32 z m 32,-32 32,0 0,-32 -32,0 0,32 z m 0,-32 0,-32 -32,0 0,32 32,0 z m 0,-32 32,0 0,-32 -32,0 0,32 z m 0,-32 0,-32.00001 -32,0 0,32.00001 32,0 z m 0,-32.00001 32,0 0,-32 -32,0 0,32 z m 0,-32 0,-32 -32,0 0,32 32,0 z m 0,-32 32,0 0,-32 -32,0 0,32 z m 0,-32 0,-32 -32,0 0,32 32,0 z m 0,-32 32,0 0,-32.00001 -32,0 0,32.00001 z m 0,-32.00001 0,-32 -32,0 0,32 32,0 z m 0,-32 32,0 0,-32 -32,0 0,32 z m 0,-32 0,-32 -32,0 0,32 32,0 z m 0,-32 32,0 0,-32 -32,0 0,32 z m 0,-32 0,-32.00002 -32,0 0,32.00002 32,0 z m 0,-32.00002 32,0 0,-31.99996 -32,0 0,31.99996 z m 32,0 0,32.00002 32,0 0,-32.00002 -32,0 z m 32,0 32,0 0,-31.99996 -32,0 0,31.99996 z m 32,0 0,32.00002 32,0 0,-32.00002 -32,0 z m 32,0 32,0 0,-31.99996 -32,0 0,31.99996 z m 32,0 0,32.00002 32,0 0,-32.00002 -32,0 z m 32,0 32,0 0,-31.99996 -32,0 0,31.99996 z m 32,0 0,32.00002 32,0 0,-32.00002 -32,0 z m 32,0 32,0 0,-31.99996 -32,0 0,31.99996 z m 32,0 0,32.00002 32,0 0,-32.00002 -32,0 z m 32,0 32,0 0,-31.99996 -32,0 0,31.99996 z m 32,0 0,32.00002 32,0 0,-32.00002 -32,0 z m 32,0 32,0 0,-31.99996 -32,0 0,31.99996 z m 32,0 0,32.00002 32,0 0,-32.00002 -32,0 z m 32,0 32,0 0,-31.99996 -32,0 0,31.99996 z m 0,32.00002 0,32 32,0 0,-32 -32,0 z m 0,32 -32,0 0,32 32,0 0,-32 z m 0,32 0,32 32,0 0,-32 -32,0 z m 0,32 -32,0 0,32 32,0 0,-32 z m 0,32 0,32.00001 32,0 0,-32.00001 -32,0 z m 0,32.00001 -32,0 0,32 32,0 0,-32 z m 0,32 0,32 32,0 0,-32 -32,0 z m 0,32 -32,0 0,32 32,0 0,-32 z m 0,32 0,32 32,0 0,-32 -32,0 z m 0,32 -32,0 0,32.00001 32,0 0,-32.00001 z m 0,32.00001 0,32 32,0 0,-32 -32,0 z m 0,32 -32,0 0,32 32,0 0,-32 z m 0,32 0,32 32,0 0,-32 -32,0 z m 0,32 -32,0 0,32 32,0 0,-32 z m -32,0 0,-32 -32,0 0,32 32,0 z m -32,0 -32,0 0,32 32,0 0,-32 z m -32,0 0,-32 -32,0 0,32 32,0 z m -32,0 -32,0 0,32 32,0 0,-32 z m -32,0 0,-32 -32,0 0,32 32,0 z m -32,0 -32,0 0,32 32,0 0,-32 z m -32,0 0,-32 -32,0 0,32 32,0 z m -32,0 -32,0 0,32 32,0 0,-32 z m -32,0 0,-32 -32,0 0,32 32,0 z m -32,0 -32,0 0,32 32,0 0,-32 z m -32,0 0,-32 -32,0 0,32 32,0 z m -32,0 -32,0 0,32 32,0 0,-32 z m 0,-32 0,-32 -32,0 0,32 32,0 z m 0,-32 32,0 0,-32 -32,0 0,32 z m 0,-32 0,-32.00001 -32,0 0,32.00001 32,0 z m 0,-32.00001 32,0 0,-32 -32,0 0,32 z m 0,-32 0,-32 -32,0 0,32 32,0 z m 0,-32 32,0 0,-32 -32,0 0,32 z m 0,-32 0,-32 -32,0 0,32 32,0 z m 0,-32 32,0 0,-32.00001 -32,0 0,32.00001 z m 0,-32.00001 0,-32 -32,0 0,32 32,0 z m 0,-32 32,0 0,-32 -32,0 0,32 z m 0,-32 0,-32 -32,0 0,32 32,0 z m 0,-32 32,0 0,-32 -32,0 0,32 z m 32,0 0,32 32,0 0,-32 -32,0 z m 32,0 32,0 0,-32 -32,0 0,32 z m 32,0 0,32 32,0 0,-32 -32,0 z m 32,0 32,0 0,-32 -32,0 0,32 z m 32,0 0,32 32,0 0,-32 -32,0 z m 32,0 32,0 0,-32 -32,0 0,32 z m 32,0 0,32 32,0 0,-32 -32,0 z m 32,0 32,0 0,-32 -32,0 0,32 z m 32,0 0,32 32,0 0,-32 -32,0 z m 32,0 32,0 0,-32 -32,0 0,32 z m 0,32 0,32 32,0 0,-32 -32,0 z m 0,32 -32,0 0,32 32,0 0,-32 z m 0,32 0,32.00001 32,0 0,-32.00001 -32,0 z m 0,32.00001 -32,0 0,32 32,0 0,-32 z m 0,32 0,32 32,0 0,-32 -32,0 z m 0,32 -32,0 0,32 32,0 0,-32 z m 0,32 0,32 32,0 0,-32 -32,0 z m 0,32 -32,0 0,32.00001 32,0 0,-32.00001 z m 0,32.00001 0,32 32,0 0,-32 -32,0 z m 0,32 -32,0 0,32 32,0 0,-32 z m -32,0 0,-32 -32,0 0,32 32,0 z m -32,0 -32,0 0,32 32,0 0,-32 z m -32,0 0,-32 -32,0 0,32 32,0 z m -32,0 -32,0 0,32 32,0 0,-32 z m -32,0 0,-32 -32,0 0,32 32,0 z m -32,0 -32,0 0,32 32,0 0,-32 z m -32,0 0,-32 -32,0 0,32 32,0 z m -32,0 -32,0 0,32 32,0 0,-32 z m 0,-32 0,-32.00001 -32,0 0,32.00001 32,0 z m 0,-32.00001 32,0 0,-32 -32,0 0,32 z m 0,-32 0,-32 -32,0 0,32 32,0 z m 0,-32 32,0 0,-32 -32,0 0,32 z m 0,-32 0,-32 -32,0 0,32 32,0 z m 0,-32 32,0 0,-32.00001 -32,0 0,32.00001 z m 0,-32.00001 0,-32 -32,0 0,32 32,0 z m 0,-32 32,0 0,-32 -32,0 0,32 z m 32,0 0,32 32,0 0,-32 -32,0 z m 32,0 32,0 0,-32 -32,0 0,32 z m 32,0 0,32 32,0 0,-32 -32,0 z m 32,0 32,0 0,-32 -32,0 0,32 z m 32,0 0,32 32,0 0,-32 -32,0 z m 32,0 32,0 0,-32 -32,0 0,32 z m 0,32 0,32.00001 32,0 0,-32.00001 -32,0 z m 0,32.00001 -32,0 0,32 32,0 0,-32 z m 0,32 0,32 32,0 0,-32 -32,0 z m 0,32 -32,0 0,32 32,0 0,-32 z m 0,32 0,32 32,0 0,-32 -32,0 z m 0,32 -32,0 0,32.00001 32,0 0,-32.00001 z m -32,0 0,-32 -32,0 0,32 32,0 z m -32,0 -32,0 0,32.00001 32,0 0,-32.00001 z m -32,0 0,-32 -32,0 0,32 32,0 z m -32,0 -32,0 0,32.00001 32,0 0,-32.00001 z m 0,-32 0,-32 -32,0 0,32 32,0 z m 0,-32 32,0 0,-32 -32,0 0,32 z m 0,-32 0,-32 -32,0 0,32 32,0 z m 0,-32 32,0 0,-32.00001 -32,0 0,32.00001 z m 32,0 0,32 32,0 0,-32 -32,0 z m 32,0 32,0 0,-32.00001 -32,0 0,32.00001 z m 0,32 0,32 32,0 0,-32 -32,0 z m 0,32 -32,0 0,32 32,0 0,-32 z"
         style="color:#000000;clip-rule:nonzero;display:inline;overflow:visible;visibility:visible;opacity:1;isolation:auto;mix-blend-mode:normal;color-interpolation:sRGB;color-interpolation-filters:linearRGB;solid-color:#000000;solid-opacity:1;fill:#ffffff;fill-opacity:1;fill-rule:nonzero;stroke:none;stroke-width:3;stroke-linecap:round;stroke-linejoin:round;stroke-miterlimit:4;stroke-dasharray:none;stroke-dashoffset:0;stroke-opacity:1;color-rendering:auto;image-rendering:auto;shape-rendering:auto;text-rendering:auto;enable-background:accumulate"
         inkscape:connector-curvature="0" />
    </g>
    <g
       id="g18238">
      <text
         sodipodi:linespacing="125%"
         id="text13178"
         y="-686.13391"
         x="264.8812"
         style="font-style:normal;font-variant:normal;font-weight:bold;font-stretch:normal;font-size:160px;line-height:125%;font-family:sans-serif;-inkscape-font-specification:'sans-serif Bold';text-align:center;letter-spacing:0px;word-spacing:0px;text-anchor:middle;fill:#ffffff;fill-opacity:1;stroke:#000000;stroke-width:24;stroke-linecap:butt;stroke-linejoin:miter;stroke-miterlimit:4;stroke-dasharray:none;stroke-opacity:1"
         xml:space="preserve"><tspan
           y="-686.13391"
           x="264.8812"
           id="tspan13180"
           sodipodi:role="line">A1</tspan></text>
      <text
         sodipodi:linespacing="125%"
         id="text13178-4"
         y="-686.13391"
         x="772.43427"
         style="font-style:normal;font-variant:normal;font-weight:bold;font-stretch:normal;font-size:160px;line-height:125%;font-family:sans-serif;-inkscape-font-specification:'sans-serif Bold';text-align:center;letter-spacing:0px;word-spacing:0px;text-anchor:middle;fill:#ffffff;fill-opacity:1;stroke:#000000;stroke-width:24;stroke-linecap:butt;stroke-linejoin:miter;stroke-miterlimit:4;stroke-dasharray:none;stroke-opacity:1"
         xml:space="preserve"><tspan
           y="-686.13391"
           x="772.43427"
           id="tspan13180-1"
           sodipodi:role="line">B1</tspan></text>
      <text
         sodipodi:linespacing="125%"
         id="text13178-5"
         y="-684.02454"
         x="1285.0854"
         style="font-style:normal;font-variant:normal;font-weight:bold;font-stretch:normal;font-size:160px;line-height:125%;font-family:sans-serif;-inkscape-font-specification:'sans-serif Bold';text-align:center;letter-spacing:0px;word-spacing:0px;text-anchor:middle;fill:#ffffff;fill-opacity:1;stroke:#000000;stroke-width:24;stroke-linecap:butt;stroke-linejoin:miter;stroke-miterlimit:4;stroke-dasharray:none;stroke-opacity:1"
         xml:space="preserve"><tspan
           y="-684.02454"
           x="1285.0854"
           id="tspan13180-0"
           sodipodi:role="line">C1</tspan></text>
      <text
         sodipodi:linespacing="125%"
         id="text13178-8"
         y="-686.13391"
         x="1790.3463"
         style="font-style:normal;font-variant:normal;font-weight:bold;font-stretch:normal;font-size:160px;line-height:125%;font-family:sans-serif;-inkscape-font-specification:'sans-serif Bold';text-align:center;letter-spacing:0px;word-spacing:0px;text-anchor:middle;fill:#ffffff;fill-opacity:1;stroke:#000000;stroke-width:24;stroke-linecap:butt;stroke-linejoin:miter;stroke-miterlimit:4;stroke-dasharray:none;stroke-opacity:1"
         xml:space="preserve"><tspan
           y="-686.13391"
           x="1790.3463"
           id="tspan13180-3"
           sodipodi:role="line">D1</tspan></text>
      <text
         sodipodi:linespacing="125%"
         id="text13178-56"
         y="-168.26285"
         x="262.52344"
         style="font-style:normal;font-variant:normal;font-weight:bold;font-stretch:normal;font-size:160px;line-height:125%;font-family:sans-serif;-inkscape-font-specification:'sans-serif Bold';text-align:center;letter-spacing:0px;word-spacing:0px;text-anchor:middle;fill:#ffffff;fill-opacity:1;stroke:#000000;stroke-width:24;stroke-linecap:butt;stroke-linejoin:miter;stroke-miterlimit:4;stroke-dasharray:none;stroke-opacity:1"
         xml:space="preserve"><tspan
           y="-168.26285"
           x="262.52344"
           id="tspan13180-5"
           sodipodi:role="line">A2</tspan></text>
      <text
         sodipodi:linespacing="125%"
         id="text13178-4-9"
         y="-168.26285"
         x="767.57031"
         style="font-style:normal;font-variant:normal;font-weight:bold;font-stretch:normal;font-size:160px;line-height:125%;font-family:sans-serif;-inkscape-font-specification:'sans-serif Bold';text-align:center;letter-spacing:0px;word-spacing:0px;text-anchor:middle;fill:#ffffff;fill-opacity:1;stroke:#000000;stroke-width:24;stroke-linecap:butt;stroke-linejoin:miter;stroke-miterlimit:4;stroke-dasharray:none;stroke-opacity:1"
         xml:space="preserve"><tspan
           y="-168.26285"
           x="767.57031"
           id="tspan13180-1-9"
           sodipodi:role="line">B2</tspan></text>
      <text
         sodipodi:linespacing="125%"
         id="text13178-5-0"
         y="-169.39566"
         x="1282.9297"
         style="font-style:normal;font-variant:normal;font-weight:bold;font-stretch:normal;font-size:160px;line-height:125%;font-family:sans-serif;-inkscape-font-specification:'sans-serif Bold';text-align:center;letter-spacing:0px;word-spacing:0px;text-anchor:middle;fill:#ffffff;fill-opacity:1;stroke:#000000;stroke-width:24;stroke-linecap:butt;stroke-linejoin:miter;stroke-miterlimit:4;stroke-dasharray:none;stroke-opacity:1"
         xml:space="preserve"><tspan
           y="-169.39566"
           x="1282.9297"
           id="tspan13180-0-7"
           sodipodi:role="line">C2</tspan></text>
      <text
         sodipodi:linespacing="125%"
         id="text13178-8-6"
         y="-168.26285"
         x="1791.5703"
         style="font-style:normal;font-variant:normal;font-weight:bold;font-stretch:normal;font-size:160px;line-height:125%;font-family:sans-serif;-inkscape-font-specification:'sans-serif Bold';text-align:center;letter-spacing:0px;word-spacing:0px;text-anchor:middle;fill:#ffffff;fill-opacity:1;stroke:#000000;stroke-width:24;stroke-linecap:butt;stroke-linejoin:miter;stroke-miterlimit:4;stroke-dasharray:none;stroke-opacity:1"
         xml:space="preserve"><tspan
           y="-168.26285"
           x="1791.5703"
           id="tspan13180-3-3"
           sodipodi:role="line">D2</tspan></text>
      <text
         sodipodi:linespacing="125%"
         id="text13178-56-7"
         y="342.60434"
         x="261.9375"
         style="font-style:normal;font-variant:normal;font-weight:bold;font-stretch:normal;font-size:160px;line-height:125%;font-family:sans-serif;-inkscape-font-specification:'sans-serif Bold';text-align:center;letter-spacing:0px;word-spacing:0px;text-anchor:middle;fill:#ffffff;fill-opacity:1;stroke:#000000;stroke-width:24;stroke-linecap:butt;stroke-linejoin:miter;stroke-miterlimit:4;stroke-dasharray:none;stroke-opacity:1"
         xml:space="preserve"><tspan
           y="342.60434"
           x="261.9375"
           id="tspan13180-5-6"
           sodipodi:role="line">A3</tspan></text>
      <text
         sodipodi:linespacing="125%"
         id="text13178-4-9-1"
         y="342.60434"
         x="766.98438"
         style="font-style:normal;font-variant:normal;font-weight:bold;font-stretch:normal;font-size:160px;line-height:125%;font-family:sans-serif;-inkscape-font-specification:'sans-serif Bold';text-align:center;letter-spacing:0px;word-spacing:0px;text-anchor:middle;fill:#ffffff;fill-opacity:1;stroke:#000000;stroke-width:24;stroke-linecap:butt;stroke-linejoin:miter;stroke-miterlimit:4;stroke-dasharray:none;stroke-opacity:1"
         xml:space="preserve"><tspan
           y="342.60434"
           x="766.98438"
           id="tspan13180-1-9-5"
           sodipodi:role="line">B3</tspan></text>
      <text
         sodipodi:linespacing="125%"
         id="text13178-5-0-0"
         y="342.60434"
         x="1282.3438"
         style="font-style:normal;font-variant:normal;font-weight:bold;font-stretch:normal;font-size:160px;line-height:125%;font-family:sans-serif;-inkscape-font-specification:'sans-serif Bold';text-align:center;letter-spacing:0px;word-spacing:0px;text-anchor:middle;fill:#ffffff;fill-opacity:1;stroke:#000000;stroke-width:24;stroke-linecap:butt;stroke-linejoin:miter;stroke-miterlimit:4;stroke-dasharray:none;stroke-opacity:1"
         xml:space="preserve"><tspan
           y="342.60434"
           x="1282.3438"
           id="tspan13180-0-7-6"
           sodipodi:role="line">C3</tspan></text>
      <text
         sodipodi:linespacing="125%"
         id="text13178-8-6-5"
         y="342.60434"
         x="1790.9844"
         style="font-style:normal;font-variant:normal;font-weight:bold;font-stretch:normal;font-size:160px;line-height:125%;font-family:sans-serif;-inkscape-font-specification:'sans-serif Bold';text-align:center;letter-spacing:0px;word-spacing:0px;text-anchor:middle;fill:#ffffff;fill-opacity:1;stroke:#000000;stroke-width:24;stroke-linecap:butt;stroke-linejoin:miter;stroke-miterlimit:4;stroke-dasharray:none;stroke-opacity:1"
         xml:space="preserve"><tspan
           y="342.60434"
           x="1790.9844"
           id="tspan13180-3-3-0"
           sodipodi:role="line">D3</tspan></text>
      <text
         sodipodi:linespacing="125%"
         id="text13178-56-7-8"
         y="854.6825"
         x="259.24219"
         style="font-style:normal;font-variant:normal;font-weight:bold;font-stretch:normal;font-size:160px;line-height:125%;font-family:sans-serif;-inkscape-font-specification:'sans-serif Bold';text-align:center;letter-spacing:0px;word-spacing:0px;text-anchor:middle;fill:#ffffff;fill-opacity:1;stroke:#000000;stroke-width:24;stroke-linecap:butt;stroke-linejoin:miter;stroke-miterlimit:4;stroke-dasharray:none;stroke-opacity:1"
         xml:space="preserve"><tspan
           y="854.6825"
           x="259.24219"
           id="tspan13180-5-6-1"
           sodipodi:role="line">A4</tspan></text>
      <text
         sodipodi:linespacing="125%"
         id="text13178-4-9-1-2"
         y="854.6825"
         x="764.28906"
         style="font-style:normal;font-variant:normal;font-weight:bold;font-stretch:normal;font-size:160px;line-height:125%;font-family:sans-serif;-inkscape-font-specification:'sans-serif Bold';text-align:center;letter-spacing:0px;word-spacing:0px;text-anchor:middle;fill:#ffffff;fill-opacity:1;stroke:#000000;stroke-width:24;stroke-linecap:butt;stroke-linejoin:miter;stroke-miterlimit:4;stroke-dasharray:none;stroke-opacity:1"
         xml:space="preserve"><tspan
           y="854.6825"
           x="764.28906"
           id="tspan13180-1-9-5-2"
           sodipodi:role="line">B4</tspan></text>
      <text
         sodipodi:linespacing="125%"
         id="text13178-5-0-0-6"
         y="854.60437"
         x="1279.6484"
         style="font-style:normal;font-variant:normal;font-weight:bold;font-stretch:normal;font-size:160px;line-height:125%;font-family:sans-serif;-inkscape-font-specification:'sans-serif Bold';text-align:center;letter-spacing:0px;word-spacing:0px;text-anchor:middle;fill:#ffffff;fill-opacity:1;stroke:#000000;stroke-width:24;stroke-linecap:butt;stroke-linejoin:miter;stroke-miterlimit:4;stroke-dasharray:none;stroke-opacity:1"
         xml:space="preserve"><tspan
           y="854.60437"
           x="1279.6484"
           id="tspan13180-0-7-6-9"
           sodipodi:role="line">C4</tspan></text>
      <text
         sodipodi:linespacing="125%"
         id="text13178-8-6-5-1"
         y="854.6825"
         x="1788.2891"
         style="font-style:normal;font-variant:normal;font-weight:bold;font-stretch:normal;font-size:160px;line-height:125%;font-family:sans-serif;-inkscape-font-specification:'sans-serif Bold';text-align:center;letter-spacing:0px;word-spacing:0px;text-anchor:middle;fill:#ffffff;fill-opacity:1;stroke:#000000;stroke-width:24;stroke-linecap:butt;stroke-linejoin:miter;stroke-miterlimit:4;stroke-dasharray:none;stroke-opacity:1"
         xml:space="preserve"><tspan
           y="854.6825"
           x="1788.2891"
           id="tspan13180-3-3-0-0"
           sodipodi:role="line">D4</tspan></text>
      <text
         sodipodi:linespacing="125%"
         id="text13178-6"
         y="-686.13391"
         x="264.8812"
         style="font-style:normal;font-variant:normal;font-weight:bold;font-stretch:normal;font-size:160px;line-height:125%;font-family:sans-serif;-inkscape-font-specification:'sans-serif Bold';text-align:center;letter-spacing:0px;word-spacing:0px;text-anchor:middle;fill:#ffffff;fill-opacity:1;stroke:none;stroke-width:24;stroke-linecap:butt;stroke-linejoin:miter;stroke-miterlimit:4;stroke-dasharray:none;stroke-opacity:1;"
         xml:space="preserve"><tspan
           y="-686.13391"
           x="264.8812"
           id="tspan13180-9"
           sodipodi:role="line">A1</tspan></text>
      <text
         sodipodi:linespacing="125%"
         id="text13178-4-4"
         y="-686.13391"
         x="772.43427"
         style="font-style:normal;font-variant:normal;font-weight:bold;font-stretch:normal;font-size:160px;line-height:125%;font-family:sans-serif;-inkscape-font-specification:'sans-serif Bold';text-align:center;letter-spacing:0px;word-spacing:0px;text-anchor:middle;fill:#ffffff;fill-opacity:1;stroke:none;stroke-width:24;stroke-linecap:butt;stroke-linejoin:miter;stroke-miterlimit:4;stroke-dasharray:none;stroke-opacity:1;"
         xml:space="preserve"><tspan
           y="-686.13391"
           x="772.43427"
           id="tspan13180-1-4"
           sodipodi:role="line">B1</tspan></text>
      <text
         sodipodi:linespacing="125%"
         id="text13178-5-6"
         y="-684.02454"
         x="1285.0854"
         style="font-style:normal;font-variant:normal;font-weight:bold;font-stretch:normal;font-size:160px;line-height:125%;font-family:sans-serif;-inkscape-font-specification:'sans-serif Bold';text-align:center;letter-spacing:0px;word-spacing:0px;text-anchor:middle;fill:#ffffff;fill-opacity:1;stroke:none;stroke-width:24;stroke-linecap:butt;stroke-linejoin:miter;stroke-miterlimit:4;stroke-dasharray:none;stroke-opacity:1;"
         xml:space="preserve"><tspan
           y="-684.02454"
           x="1285.0854"
           id="tspan13180-0-0"
           sodipodi:role="line">C1</tspan></text>
      <text
         sodipodi:linespacing="125%"
         id="text13178-8-7"
         y="-686.13391"
         x="1790.3463"
         style="font-style:normal;font-variant:normal;font-weight:bold;font-stretch:normal;font-size:160px;line-height:125%;font-family:sans-serif;-inkscape-font-specification:'sans-serif Bold';text-align:center;letter-spacing:0px;word-spacing:0px;text-anchor:middle;fill:#ffffff;fill-opacity:1;stroke:none;stroke-width:24;stroke-linecap:butt;stroke-linejoin:miter;stroke-miterlimit:4;stroke-dasharray:none;stroke-opacity:1;"
         xml:space="preserve"><tspan
           y="-686.13391"
           x="1790.3463"
           id="tspan13180-3-4"
           sodipodi:role="line">D1</tspan></text>
      <text
         sodipodi:linespacing="125%"
         id="text13178-56-3"
         y="-168.26285"
         x="262.52344"
         style="font-style:normal;font-variant:normal;font-weight:bold;font-stretch:normal;font-size:160px;line-height:125%;font-family:sans-serif;-inkscape-font-specification:'sans-serif Bold';text-align:center;letter-spacing:0px;word-spacing:0px;text-anchor:middle;fill:#ffffff;fill-opacity:1;stroke:none;stroke-width:24;stroke-linecap:butt;stroke-linejoin:miter;stroke-miterlimit:4;stroke-dasharray:none;stroke-opacity:1;"
         xml:space="preserve"><tspan
           y="-168.26285"
           x="262.52344"
           id="tspan13180-5-7"
           sodipodi:role="line">A2</tspan></text>
      <text
         sodipodi:linespacing="125%"
         id="text13178-4-9-9"
         y="-168.26285"
         x="767.57031"
         style="font-style:normal;font-variant:normal;font-weight:bold;font-stretch:normal;font-size:160px;line-height:125%;font-family:sans-serif;-inkscape-font-specification:'sans-serif Bold';text-align:center;letter-spacing:0px;word-spacing:0px;text-anchor:middle;fill:#ffffff;fill-opacity:1;stroke:none;stroke-width:24;stroke-linecap:butt;stroke-linejoin:miter;stroke-miterlimit:4;stroke-dasharray:none;stroke-opacity:1;"
         xml:space="preserve"><tspan
           y="-168.26285"
           x="767.57031"
           id="tspan13180-1-9-0"
           sodipodi:role="line">B2</tspan></text>
      <text
         sodipodi:linespacing="125%"
         id="text13178-5-0-02"
         y="-169.39566"
         x="1282.9297"
         style="font-style:normal;font-variant:normal;font-weight:bold;font-stretch:normal;font-size:160px;line-height:125%;font-family:sans-serif;-inkscape-font-specification:'sans-serif Bold';text-align:center;letter-spacing:0px;word-spacing:0px;text-anchor:middle;fill:#ffffff;fill-opacity:1;stroke:none;stroke-width:24;stroke-linecap:butt;stroke-linejoin:miter;stroke-miterlimit:4;stroke-dasharray:none;stroke-opacity:1;"
         xml:space="preserve"><tspan
           y="-169.39566"
           x="1282.9297"
           id="tspan13180-0-7-2"
           sodipodi:role="line">C2</tspan></text>
      <text
         sodipodi:linespacing="125%"
         id="text13178-8-6-6"
         y="-168.26285"
         x="1791.5703"
         style="font-style:normal;font-variant:normal;font-weight:bold;font-stretch:normal;font-size:160px;line-height:125%;font-family:sans-serif;-inkscape-font-specification:'sans-serif Bold';text-align:center;letter-spacing:0px;word-spacing:0px;text-anchor:middle;fill:#ffffff;fill-opacity:1;stroke:none;stroke-width:24;stroke-linecap:butt;stroke-linejoin:miter;stroke-miterlimit:4;stroke-dasharray:none;stroke-opacity:1;"
         xml:space="preserve"><tspan
           y="-168.26285"
           x="1791.5703"
           id="tspan13180-3-3-9"
           sodipodi:role="line">D2</tspan></text>
      <text
         sodipodi:linespacing="125%"
         id="text13178-56-7-0"
         y="342.60434"
         x="261.9375"
         style="font-style:normal;font-variant:normal;font-weight:bold;font-stretch:normal;font-size:160px;line-height:125%;font-family:sans-serif;-inkscape-font-specification:'sans-serif Bold';text-align:center;letter-spacing:0px;word-spacing:0px;text-anchor:middle;fill:#ffffff;fill-opacity:1;stroke:none;stroke-width:24;stroke-linecap:butt;stroke-linejoin:miter;stroke-miterlimit:4;stroke-dasharray:none;stroke-opacity:1;"
         xml:space="preserve"><tspan
           y="342.60434"
           x="261.9375"
           id="tspan13180-5-6-3"
           sodipodi:role="line">A3</tspan></text>
      <text
         sodipodi:linespacing="125%"
         id="text13178-4-9-1-5"
         y="342.60434"
         x="766.98438"
         style="font-style:normal;font-variant:normal;font-weight:bold;font-stretch:normal;font-size:160px;line-height:125%;font-family:sans-serif;-inkscape-font-specification:'sans-serif Bold';text-align:center;letter-spacing:0px;word-spacing:0px;text-anchor:middle;fill:#ffffff;fill-opacity:1;stroke:none;stroke-width:24;stroke-linecap:butt;stroke-linejoin:miter;stroke-miterlimit:4;stroke-dasharray:none;stroke-opacity:1;"
         xml:space="preserve"><tspan
           y="342.60434"
           x="766.98438"
           id="tspan13180-1-9-5-5"
           sodipodi:role="line">B3</tspan></text>
      <text
         sodipodi:linespacing="125%"
         id="text13178-5-0-0-8"
         y="342.60434"
         x="1282.3438"
         style="font-style:normal;font-variant:normal;font-weight:bold;font-stretch:normal;font-size:160px;line-height:125%;font-family:sans-serif;-inkscape-font-specification:'sans-serif Bold';text-align:center;letter-spacing:0px;word-spacing:0px;text-anchor:middle;fill:#ffffff;fill-opacity:1;stroke:none;stroke-width:24;stroke-linecap:butt;stroke-linejoin:miter;stroke-miterlimit:4;stroke-dasharray:none;stroke-opacity:1;"
         xml:space="preserve"><tspan
           y="342.60434"
           x="1282.3438"
           id="tspan13180-0-7-6-7"
           sodipodi:role="line">C3</tspan></text>
      <text
         sodipodi:linespacing="125%"
         id="text13178-8-6-5-17"
         y="342.60434"
         x="1790.9844"
         style="font-style:normal;font-variant:normal;font-weight:bold;font-stretch:normal;font-size:160px;line-height:125%;font-family:sans-serif;-inkscape-font-specification:'sans-serif Bold';text-align:center;letter-spacing:0px;word-spacing:0px;text-anchor:middle;fill:#ffffff;fill-opacity:1;stroke:none;stroke-width:24;stroke-linecap:butt;stroke-linejoin:miter;stroke-miterlimit:4;stroke-dasharray:none;stroke-opacity:1;"
         xml:space="preserve"><tspan
           y="342.60434"
           x="1790.9844"
           id="tspan13180-3-3-0-06"
           sodipodi:role="line">D3</tspan></text>
      <text
         sodipodi:linespacing="125%"
         id="text13178-56-7-8-0"
         y="854.6825"
         x="259.24219"
         style="font-style:normal;font-variant:normal;font-weight:bold;font-stretch:normal;font-size:160px;line-height:125%;font-family:sans-serif;-inkscape-font-specification:'sans-serif Bold';text-align:center;letter-spacing:0px;word-spacing:0px;text-anchor:middle;fill:#ffffff;fill-opacity:1;stroke:none;stroke-width:24;stroke-linecap:butt;stroke-linejoin:miter;stroke-miterlimit:4;stroke-dasharray:none;stroke-opacity:1;"
         xml:space="preserve"><tspan
           y="854.6825"
           x="259.24219"
           id="tspan13180-5-6-1-4"
           sodipodi:role="line">A4</tspan></text>
      <text
         sodipodi:linespacing="125%"
         id="text13178-4-9-1-2-1"
         y="854.6825"
         x="764.28906"
         style="font-style:normal;font-variant:normal;font-weight:bold;font-stretch:normal;font-size:160px;line-height:125%;font-family:sans-serif;-inkscape-font-specification:'sans-serif Bold';text-align:center;letter-spacing:0px;word-spacing:0px;text-anchor:middle;fill:#ffffff;fill-opacity:1;stroke:none;stroke-width:24;stroke-linecap:butt;stroke-linejoin:miter;stroke-miterlimit:4;stroke-dasharray:none;stroke-opacity:1;"
         xml:space="preserve"><tspan
           y="854.6825"
           x="764.28906"
           id="tspan13180-1-9-5-2-3"
           sodipodi:role="line">B4</tspan></text>
      <text
         sodipodi:linespacing="125%"
         id="text13178-5-0-0-6-0"
         y="854.60437"
         x="1279.6484"
         style="font-style:normal;font-variant:normal;font-weight:bold;font-stretch:normal;font-size:160px;line-height:125%;font-family:sans-serif;-inkscape-font-specification:'sans-serif Bold';text-align:center;letter-spacing:0px;word-spacing:0px;text-anchor:middle;fill:#ffffff;fill-opacity:1;stroke:none;stroke-width:24;stroke-linecap:butt;stroke-linejoin:miter;stroke-miterlimit:4;stroke-dasharray:none;stroke-opacity:1;"
         xml:space="preserve"><tspan
           y="854.60437"
           x="1279.6484"
           id="tspan13180-0-7-6-9-2"
           sodipodi:role="line">C4</tspan></text>
      <text
         sodipodi:linespacing="125%"
         id="text13178-8-6-5-1-9"
         y="854.6825"
         x="1788.2891"
         style="font-style:normal;font-variant:normal;font-weight:bold;font-stretch:normal;font-size:160px;line-height:125%;font-family:sans-serif;-inkscape-font-specification:'sans-serif Bold';text-align:center;letter-spacing:0px;word-spacing:0px;text-anchor:middle;fill:#ffffff;fill-opacity:1;stroke:none;stroke-width:24;stroke-linecap:butt;stroke-linejoin:miter;stroke-miterlimit:4;stroke-dasharray:none;stroke-opacity:1;"
         xml:space="preserve"><tspan
           y="854.6825"
           x="1788.2891"
           id="tspan13180-3-3-0-0-6"
           sodipodi:role="line">D4</tspan></text>
    </g>
    <g
       id="g18368"
       transform="translate(64,-64)" />
  </g>
</svg>
